<svg width="40" height="40" viewBox="0 0 40 40" fill="none" xmlns="http://www.w3.org/2000/svg">
	<path d="M24.4807 6.99395C24.77 6.36649 24.9313 5.66789 24.9313 4.93168C24.9313 2.208 22.7236 0 19.9999 0C17.2762 0 15.0685 2.208 15.0685 4.93146C15.0685 5.66768 15.2298 6.36627 15.5191 6.99395C14.9805 7.17557 14.4566 7.38897 13.9495 7.63222C13.71 6.99027 13.3323 6.38789 12.8159 5.87178C10.8901 3.94595 7.76774 3.94595 5.84191 5.87178C3.91609 7.79762 3.91609 10.92 5.84191 12.8458C6.33013 13.3341 6.89531 13.6986 7.49834 13.9392C7.25034 14.4277 7.03023 14.9325 6.83996 15.4517C6.25294 15.205 5.60797 15.0688 4.93143 15.0688C2.20799 15.0688 0 17.2765 0 20.0002C0 22.7237 2.20799 24.9317 4.93143 24.9317C5.54462 24.9317 6.13186 24.8197 6.67348 24.6151C6.84775 25.1507 7.05358 25.6722 7.28839 26.1771C6.76385 26.4154 6.2724 26.7501 5.84105 27.1814C3.91522 29.1072 3.91522 32.2296 5.84105 34.1555C7.76688 36.0813 10.8892 36.0813 12.8151 34.1555C13.2142 33.7565 13.5305 33.3059 13.7642 32.8255C14.2687 33.0765 14.7904 33.2982 15.3271 33.4878C15.1593 33.984 15.0682 34.5157 15.0682 35.0685C15.0685 37.7922 17.2762 40 19.9999 40C22.7236 40 24.9313 37.792 24.9313 35.0685C24.9313 34.5157 24.8403 33.9842 24.6727 33.488C25.1996 33.3016 25.7121 33.0845 26.2081 32.8391C26.4412 33.3148 26.7553 33.7609 27.151 34.1565C29.0768 36.0824 32.1992 36.0824 34.125 34.1565C36.0508 32.2307 36.0508 29.1083 34.125 27.1825C33.7012 26.7585 33.2193 26.4281 32.7051 26.1907C32.9427 25.6815 33.1505 25.1557 33.3263 24.6154C33.8681 24.8199 34.4552 24.9317 35.0686 24.9317C37.792 24.9317 40 22.7239 40 20.0002C40 17.2765 37.792 15.0688 35.0683 15.0688C34.3918 15.0688 33.7471 15.205 33.16 15.4517C32.9683 14.9289 32.7464 14.4208 32.4965 13.9293C33.0893 13.6886 33.645 13.3278 34.1259 12.8467C36.0519 10.9209 36.0519 7.79849 34.1261 5.87265C32.2003 3.94681 29.0777 3.94681 27.1519 5.87265C26.6394 6.38508 26.2632 6.98249 26.0236 7.61924C25.5248 7.38141 25.0098 7.17232 24.4807 6.99395Z" fill="#2971F6" />
</svg>
