<svg width="500" height="500" viewBox="0 0 500 500" fill="none" xmlns="http://www.w3.org/2000/svg">
<path d="M311.009 89.6836C314.859 81.9727 317.141 73.3254 317.426 64.1465C318.481 30.1886 291.811 1.80461 257.853 0.749287C223.895 -0.30604 195.514 26.3671 194.459 60.3223C194.173 69.5012 195.914 78.2735 199.277 86.2112C192.492 88.267 185.878 90.7246 179.462 93.5608C176.724 85.4645 172.248 77.8079 166.01 71.1731C142.746 46.4163 103.817 45.2064 79.0603 68.4709C54.3034 91.7354 53.0936 130.664 76.3581 155.421C82.2558 161.697 89.1612 166.461 96.5863 169.695C93.305 175.689 90.3652 181.898 87.7918 188.296C80.5686 184.993 72.58 183.045 64.1451 182.783C30.19 181.728 1.80596 208.398 0.750629 242.356C-0.304614 276.311 26.3685 304.695 60.3236 305.75C67.9687 305.988 75.3336 304.819 82.1656 302.479C84.1308 309.224 86.4951 315.805 89.227 322.191C82.5949 324.958 76.3379 328.941 70.7928 334.152C46.0359 357.416 44.8261 396.345 68.0906 421.102C91.3551 445.859 130.284 447.068 155.041 423.804C160.172 418.985 164.29 413.49 167.39 407.59C173.582 410.916 180.001 413.881 186.618 416.453C184.334 422.575 182.993 429.168 182.779 436.061C181.726 470.019 208.397 498.4 242.355 499.456C276.312 500.511 304.694 473.838 305.749 439.883C305.963 432.99 305.034 426.328 303.137 420.077C309.779 417.957 316.252 415.449 322.531 412.582C325.253 418.603 328.997 424.286 333.777 429.372C357.041 454.129 395.97 455.339 420.727 432.074C445.484 408.81 446.693 369.881 423.429 345.124C418.31 339.674 412.429 335.368 406.11 332.209C409.27 325.953 412.065 319.477 414.466 312.809C421.142 315.569 428.417 317.19 436.065 317.428C470.02 318.483 498.404 291.812 499.46 257.855C500.515 223.897 473.842 195.515 439.884 194.46C431.449 194.198 423.358 195.646 415.943 198.495C413.755 191.902 411.186 185.481 408.26 179.257C415.745 176.486 422.813 172.203 428.994 166.391C453.754 143.127 454.964 104.198 431.699 79.4409C408.435 54.684 369.503 53.4741 344.746 76.7386C338.159 82.9289 333.237 90.2314 330.003 98.0774C323.877 94.9189 317.536 92.1126 311.009 89.6836Z" fill="#A3E9FF"/>
</svg>
