<svg width="148" height="149" viewBox="0 0 148 149" fill="none" xmlns="http://www.w3.org/2000/svg">
<path d="M12.9051 94.002C12.1968 94.1835 7.96054 95.3196 6.81084 95.6215C6.79369 95.6258 6.77837 95.6363 6.76738 95.6512C6.75639 95.6662 6.75037 95.6847 6.75029 95.7038V107.625C6.75029 107.643 6.74533 107.66 6.7361 107.674C6.72688 107.688 6.71383 107.699 6.69873 107.705L5.10954 108.329C3.9446 108.781 3 109.132 3 110.833C3 112.21 3.91921 112.834 4.48254 112.953C4.67615 112.988 4.87231 113.004 5.06852 112.999C5.41581 112.999 6.27955 112.847 6.92492 112.395C8.00039 111.641 8.00039 111.641 8.00039 110.281V99.8165C8.00034 99.7977 8.00602 99.7794 8.01656 99.7646C8.02709 99.7497 8.04188 99.739 8.0586 99.7342L12.9418 98.3348C12.9585 98.33 12.9733 98.3193 12.9838 98.3044C12.9944 98.2895 13.0001 98.2713 13 98.2525V94.0847C13 94.072 12.9973 94.0595 12.9923 94.0481C12.9872 94.0366 12.9799 94.0266 12.9708 94.0187C12.9617 94.0107 12.951 94.0051 12.9397 94.0022C12.9283 93.9993 12.9165 93.9993 12.9051 94.002Z" fill="black"/>
<path d="M117.96 76.3849C117.229 76.3987 112.845 76.5303 111.656 76.5598C111.639 76.56 111.621 76.5667 111.607 76.5787C111.593 76.5907 111.583 76.6074 111.578 76.6259L108.837 88.2281C108.833 88.2451 108.824 88.2605 108.812 88.2723C108.8 88.284 108.785 88.2916 108.769 88.2939L107.079 88.5351C105.841 88.7072 104.841 88.8318 104.45 90.4876C104.133 91.8276 104.884 92.6461 105.405 92.892C105.585 92.9704 105.773 93.0304 105.965 93.0713C106.303 93.1512 107.178 93.2016 107.91 92.9105C109.13 92.424 109.13 92.424 109.443 91.1004L111.849 80.9159C111.854 80.8976 111.863 80.8811 111.877 80.8691C111.891 80.857 111.908 80.85 111.925 80.8492L116.999 80.61C117.016 80.6092 117.033 80.6022 117.047 80.5902C117.061 80.5781 117.07 80.5616 117.075 80.5434L118.033 76.4872C118.036 76.4749 118.036 76.4621 118.034 76.4498C118.032 76.4375 118.027 76.4261 118.02 76.4163C118.013 76.4064 118.004 76.3985 117.993 76.3931C117.983 76.3877 117.971 76.3849 117.96 76.3849Z" fill="black"/>
<path opacity="0.5" d="M56.0503 60.6661C55.6457 60.8458 53.2303 61.9551 52.5742 62.2518C52.5643 62.2561 52.5562 62.2644 52.551 62.2754C52.5458 62.2864 52.544 62.2994 52.5457 62.3124L53.6331 70.3965C53.6346 70.4083 53.6332 70.4202 53.6291 70.4307C53.6249 70.4411 53.6181 70.4495 53.6097 70.4547L52.7215 71.0045C52.07 71.4042 51.5404 71.7179 51.6955 72.8716C51.8211 73.8054 52.4246 74.1548 52.7705 74.1909C52.8888 74.199 53.0069 74.1937 53.1232 74.1751C53.3297 74.1473 53.8294 73.975 54.172 73.6171C54.7427 73.0198 54.7427 73.0198 54.6187 72.0975L53.6641 65.0012C53.6624 64.9885 53.6641 64.9757 53.669 64.9647C53.6739 64.9538 53.6817 64.9454 53.6913 64.9408L56.4674 63.6012C56.4769 63.5967 56.4847 63.5882 56.4896 63.5773C56.4945 63.5664 56.4962 63.5535 56.4945 63.5408L56.1143 60.7146C56.1132 60.706 56.1104 60.6977 56.1064 60.6904C56.1023 60.683 56.0971 60.6768 56.0909 60.6722C56.0848 60.6675 56.078 60.6646 56.0709 60.6635C56.0639 60.6625 56.0569 60.6633 56.0503 60.6661Z" fill="black"/>
<path d="M56.2358 94.0027C56.0898 94.0027 55.0535 94.2092 46.5531 95.8127C46.4867 95.8127 46.1686 95.897 45.994 96.044C45.8226 96.1828 45.7316 96.3678 45.698 96.5859C45.5562 97.1559 46.0079 107.448 45.5873 107.93C45.4037 108.136 45.0798 108.195 44.8297 108.241C43.3343 108.506 42.339 108.645 41.6306 109.324C40.409 110.525 41.042 112.62 42.8424 112.959C43.5171 113.085 44.7855 112.915 45.4848 112.524C46.1014 112.204 46.5687 111.629 46.7433 110.865C46.8934 110.21 46.8474 110.663 46.8474 100.808C46.8474 100.325 46.9819 100.199 47.4066 100.106C47.4066 100.106 54.8018 98.7131 55.1437 98.6545C55.6225 98.5702 55.8521 98.7008 55.8521 99.1708C55.8521 105.851 55.9357 105.721 55.6692 106.023C55.4856 106.229 55.2675 106.287 55.0174 106.333C53.5212 106.597 52.6177 106.644 51.9093 107.324C51.0132 108.205 51.0255 109.604 52.0216 110.447C52.7636 111.017 53.5958 111.158 54.6173 110.968C55.7799 110.749 56.6473 110.103 56.913 108.952C57.0343 108.427 56.995 109.203 56.99 94.7413C56.99 94.2539 56.7146 93.9688 56.2358 94.0027Z" fill="black"/>
<path opacity="0.5" d="M123.236 24.0027C123.09 24.0027 122.054 24.2092 113.553 25.8127C113.487 25.8127 113.169 25.897 112.994 26.044C112.823 26.1828 112.732 26.3678 112.698 26.5859C112.556 27.1559 113.008 37.4475 112.587 37.93C112.404 38.1365 112.08 38.1951 111.83 38.2414C110.334 38.5058 109.339 38.6445 108.631 39.3236C107.409 40.5247 108.042 42.6197 109.842 42.9593C110.517 43.0848 111.785 42.9147 112.485 42.5239C113.101 42.2042 113.569 41.6292 113.743 40.8651C113.893 40.21 113.847 40.6627 113.847 30.8081C113.847 30.3249 113.982 30.1993 114.407 30.106C114.407 30.106 121.802 28.7131 122.144 28.6545C122.622 28.5702 122.852 28.7008 122.852 29.1708C122.852 35.8515 122.936 35.721 122.669 36.0233C122.486 36.229 122.267 36.2868 122.017 36.3331C120.521 36.5975 119.618 36.6437 118.909 37.3236C118.013 38.2051 118.025 39.6036 119.022 40.4471C119.764 41.0171 120.596 41.1575 121.617 40.9684C122.78 40.7494 123.647 40.1026 123.913 38.9518C124.034 38.4273 123.995 39.203 123.99 24.7413C123.99 24.2539 123.715 23.9688 123.236 24.0027Z" fill="black"/>
<path d="M87.6574 67.0423C87.5694 67.0663 86.9816 67.3727 82.1433 69.8264C82.1033 69.8373 81.9266 69.9451 81.8477 70.0709C81.7693 70.1906 81.7476 70.3277 81.7666 70.4772C81.7834 70.8768 83.9049 77.5972 83.7379 77.9847C83.6643 78.1512 83.4795 78.2431 83.337 78.3147C82.4827 78.7346 81.9074 78.9896 81.6022 79.5542C81.0813 80.5476 81.8394 81.8269 82.9862 81.7556C83.4156 81.7277 84.15 81.4072 84.5015 81.0345C84.8159 80.7222 84.9944 80.2659 84.9624 79.7328C84.9352 79.2757 84.9889 79.5821 83.2183 73.0761C83.1315 72.757 83.19 72.6521 83.4294 72.5207C83.4294 72.5207 87.639 70.3875 87.8346 70.2927C88.1082 70.1585 88.2701 70.207 88.3546 70.5173C89.5548 74.9279 89.5818 74.828 89.4755 75.0713C89.4017 75.2373 89.2805 75.3112 89.138 75.3828C88.2832 75.8029 87.7466 75.9817 87.4416 76.5468C87.0595 77.2758 87.3182 78.1972 88.0705 78.5905C88.6204 78.8451 89.1475 78.8012 89.7296 78.5087C90.3913 78.1734 90.7982 77.604 90.7517 76.8006C90.7306 76.4344 90.8462 76.953 88.245 67.4061C88.1574 67.0844 87.9401 66.9414 87.6574 67.0423Z" fill="black"/>
<path opacity="0.1" d="M1 123C2 103.833 18.3 72.1 63.5 70.5C108.7 68.9 129.833 23 140 0.5M20 148C23.1667 132.167 38.1 101.1 72.5 103.5C106.9 105.9 136.833 54.8333 147.5 29" stroke="url(#paint0_linear)" stroke-linecap="round" stroke-linejoin="round"/>
<defs>
<linearGradient id="paint0_linear" x1="155.5" y1="1" x2="10" y2="120.5" gradientUnits="userSpaceOnUse">
<stop stop-opacity="0"/>
<stop offset="0.598958"/>
<stop offset="1" stop-opacity="0"/>
</linearGradient>
</defs>
</svg>
