<svg width="362" height="362" viewBox="0 0 362 362" fill="none" xmlns="http://www.w3.org/2000/svg">
<path d="M199.744 288.151L275.844 322.933L268.938 242.663L346.763 221.829L288.151 162.117L322.933 86.0209L242.662 92.9261L221.828 15.1012L162.117 73.7127L86.0183 38.9291L92.9235 119.2L15.0984 140.036L73.7102 199.747L38.9292 275.842L119.199 268.938L140.035 346.764L199.744 288.151Z" fill="#FDACFF"/>
<path fill-rule="evenodd" clip-rule="evenodd" d="M112.336 180.907L104.393 182.301L105.742 189.993L97.799 191.387L99.1489 199.078L100.499 206.769L108.442 205.375L116.386 203.981L124.329 202.587L122.979 194.896L121.629 187.204L120.28 179.513L112.336 180.907ZM113.686 188.598L114.386 192.588L115.036 196.29L110.916 197.013L107.092 197.684L106.392 193.694L105.742 189.993L113.686 188.598Z" fill="white"/>
<path fill-rule="evenodd" clip-rule="evenodd" d="M96.4475 183.696L104.391 182.302L103.041 174.611L95.0977 176.005L96.4475 183.696Z" fill="white"/>
<path fill-rule="evenodd" clip-rule="evenodd" d="M149.009 194.548C152.163 193.994 153.165 192.909 152.766 190.635C152.355 188.294 150.979 187.661 147.475 188.276L142.744 189.107L143.858 195.452L149.009 194.548ZM146.704 184.704C149.752 184.169 150.702 183.197 150.315 180.992C149.934 178.82 148.71 178.23 145.801 178.741L141.07 179.571L142.113 185.51L146.704 184.704ZM136.164 176.725L145.556 175.076C150.952 174.129 153.733 175.565 154.46 179.705C154.906 182.25 154.24 184.011 152.134 185.184L152.146 185.252C155.092 185.575 156.564 187.171 157.094 190.19C157.875 194.636 155.773 197.069 150.341 198.022L140.214 199.799L136.164 176.725Z" fill="white"/>
<mask id="mask0" mask-type="alpha" maskUnits="userSpaceOnUse" x="95" y="146" width="172" height="62">
<path d="M100.569 207.177L266.718 178.017L261.247 146.845L95.0977 176.004L100.569 207.177Z" fill="white"/>
</mask>
<g mask="url(#mask0)">
<path fill-rule="evenodd" clip-rule="evenodd" d="M162.081 195.961L166.356 195.211L162.306 172.136L158.031 172.887L162.081 195.961Z" fill="white"/>
<path fill-rule="evenodd" clip-rule="evenodd" d="M172.276 174.2L165.583 175.375L164.934 171.676L182.595 168.576L183.244 172.275L176.551 173.45L179.952 192.825L175.676 193.575L172.276 174.2Z" fill="white"/>
<path fill-rule="evenodd" clip-rule="evenodd" d="M185.223 168.114L200.922 165.359L201.56 168.99L190.135 170.995L191.184 176.967L200.856 175.27L201.493 178.901L191.821 180.598L193.548 190.438L189.272 191.189L185.223 168.114Z" fill="white"/>
<path fill-rule="evenodd" clip-rule="evenodd" d="M206.184 180.316L203.48 164.91L207.756 164.16L210.442 179.464C211.025 182.789 212.466 183.795 215.796 183.211C219.125 182.627 220.136 181.19 219.553 177.865L216.867 162.561L221.002 161.835L223.705 177.241C224.694 182.873 222.53 185.772 216.363 186.854C210.23 187.93 207.173 185.948 206.184 180.316Z" fill="white"/>
<path fill-rule="evenodd" clip-rule="evenodd" d="M235.713 170.131C238.727 169.603 239.605 168.434 239.17 165.957C238.73 163.446 237.512 162.68 234.499 163.209L229.732 164.046L230.947 170.968L235.713 170.131ZM224.82 161.165L234.282 159.505C239.923 158.514 242.565 160.184 243.446 165.207C244.119 169.041 243.122 171.385 240.07 172.725L247.162 181.029L242.256 181.89L235.504 173.876L231.578 174.565L233.145 183.489L228.87 184.24L224.82 161.165Z" fill="white"/>
<path fill-rule="evenodd" clip-rule="evenodd" d="M256.863 169.218L258.584 179.025L254.309 179.775L252.6 170.037L242.199 158.115L247.106 157.254L254.18 165.457L258.004 155.341L262.595 154.536L256.863 169.218Z" fill="white"/>
</g>
</svg>
