<svg width="983" height="955" viewBox="0 0 983 955" fill="none" xmlns="http://www.w3.org/2000/svg">
<path d="M570.5 737.732C738.671 737.732 875 601.403 875 433.232C875 265.062 738.671 128.732 570.5 128.732C402.33 128.732 266 265.062 266 433.232C266 601.403 402.33 737.732 570.5 737.732Z" fill="#F6824C"/>
<path d="M188.324 544.577C187.396 543.009 185.508 542.161 182.964 542.161C178.724 542.161 175.54 544.593 175.54 548.801C175.54 551.921 177.876 553.681 181.54 553.681C184.1 553.681 186.228 552.785 187.54 551.185L185.876 549.905C185.028 551.041 183.54 551.649 181.796 551.649C179.428 551.649 177.828 550.561 177.828 548.481C177.828 545.697 179.972 544.193 182.708 544.193C184.42 544.193 185.732 544.769 186.324 545.873L188.324 544.577ZM188.978 548.801C188.978 551.921 191.314 553.681 194.978 553.681C199.186 553.681 202.402 551.265 202.402 547.073C202.402 543.937 200.066 542.161 196.402 542.161C192.194 542.161 188.978 544.641 188.978 548.801ZM196.146 544.193C198.53 544.193 200.13 545.313 200.13 547.393C200.13 550.161 197.938 551.649 195.234 551.649C192.866 551.649 191.266 550.561 191.266 548.481C191.266 545.697 193.41 544.193 196.146 544.193ZM213.444 553.521L215.828 553.521L217.188 542.321L214.98 542.321L213.988 550.433L207.78 542.321L205.396 542.321L204.036 553.521L206.244 553.521L207.236 545.425L213.444 553.521ZM230.966 544.369L231.206 542.321L218.982 542.321L218.742 544.369L223.75 544.369L222.63 553.521L224.838 553.521L225.958 544.369L230.966 544.369ZM240.717 553.521L243.453 553.521L239.933 548.385C241.869 548.289 243.421 546.961 243.421 544.929C243.421 543.313 242.189 542.321 240.429 542.321L233.021 542.321L231.661 553.521L233.869 553.521L234.493 548.385L237.213 548.385L240.717 553.521ZM240.189 544.369C240.765 544.369 241.165 544.657 241.165 545.217C241.165 545.969 240.605 546.337 239.949 546.337L234.749 546.337L234.989 544.369L240.189 544.369ZM244.759 548.801C244.759 551.921 247.095 553.681 250.759 553.681C254.967 553.681 258.183 551.265 258.183 547.073C258.183 543.937 255.847 542.161 252.183 542.161C247.975 542.161 244.759 544.641 244.759 548.801ZM251.927 544.193C254.311 544.193 255.911 545.313 255.911 547.393C255.911 550.161 253.719 551.649 251.015 551.649C248.647 551.649 247.047 550.561 247.047 548.481C247.047 545.697 249.191 544.193 251.927 544.193ZM259.818 553.521L269.498 553.521L269.738 551.473L262.266 551.473L263.386 542.321L261.178 542.321L259.818 553.521ZM271.708 553.521L281.388 553.521L281.628 551.473L274.156 551.473L275.276 542.321L273.068 542.321L271.708 553.521ZM293.439 553.521L293.679 551.473L286.047 551.473L286.447 548.241L293.359 548.241L293.615 546.193L286.703 546.193L286.927 544.369L294.511 544.369L294.751 542.321L284.959 542.321L283.599 553.521L293.439 553.521ZM305.53 553.521L308.266 553.521L304.746 548.385C306.682 548.289 308.234 546.961 308.234 544.929C308.234 543.313 307.002 542.321 305.242 542.321L297.834 542.321L296.474 553.521L298.682 553.521L299.306 548.385L302.026 548.385L305.53 553.521ZM305.002 544.369C305.578 544.369 305.978 544.657 305.978 545.217C305.978 545.969 305.418 546.337 304.762 546.337L299.562 546.337L299.802 544.369L305.002 544.369Z" fill="white"/>
<path d="M232.156 394.785C231.228 393.217 229.18 392.369 226.636 392.369C222.396 392.369 219.068 394.785 219.068 398.961C219.068 402.113 221.532 403.889 225.212 403.889C226.796 403.889 228.14 403.425 229.244 402.689L229.116 403.713L231.26 403.713L232.108 396.705L224.284 396.705L223.244 398.753L229.724 398.753L229.628 399.537C229.26 400.849 227.58 401.857 225.468 401.857C223.084 401.857 221.34 400.753 221.34 398.641C221.34 395.889 223.644 394.401 226.38 394.401C228.092 394.401 229.564 394.977 230.156 396.081L232.156 394.785ZM234.345 403.729L244.025 403.729L244.265 401.681L236.793 401.681L237.913 392.529L235.705 392.529L234.345 403.729ZM245.74 399.009C245.74 402.129 248.076 403.889 251.74 403.889C255.948 403.889 259.164 401.473 259.164 397.281C259.164 394.145 256.828 392.369 253.164 392.369C248.956 392.369 245.74 394.849 245.74 399.009ZM252.908 394.401C255.292 394.401 256.892 395.521 256.892 397.601C256.892 400.369 254.7 401.857 251.996 401.857C249.628 401.857 248.028 400.769 248.028 398.689C248.028 395.905 250.172 394.401 252.908 394.401ZM264.718 403.729L267.278 403.729L274.078 392.529L271.678 392.529L266.254 401.457L263.006 392.529L260.638 392.529L264.718 403.729ZM284.529 403.729L284.769 401.681L277.137 401.681L277.537 398.449L284.449 398.449L284.705 396.401L277.793 396.401L278.017 394.577L285.601 394.577L285.841 392.529L276.049 392.529L274.689 403.729L284.529 403.729ZM300.073 403.729C302.377 403.729 304.297 402.049 304.297 399.761C304.297 398.689 303.801 397.809 303.001 397.281C303.609 396.737 304.009 395.953 304.009 395.009C304.009 393.473 302.777 392.529 301.001 392.529L293.705 392.529L292.345 403.729L300.073 403.729ZM300.697 398.593C301.513 398.593 302.025 399.089 302.025 399.905C302.025 401.009 301.273 401.681 300.313 401.681L294.793 401.681L295.177 398.593L300.697 398.593ZM300.761 394.577C301.337 394.577 301.737 394.865 301.737 395.425C301.737 396.177 301.177 396.545 300.521 396.545L295.433 396.545L295.673 394.577L300.761 394.577ZM314.294 392.529L311.734 392.529L304.95 403.729L307.302 403.729L309.462 400.161L314.662 400.161L315.974 403.729L318.374 403.729L314.294 392.529ZM312.726 394.801L313.958 398.193L310.662 398.193L312.726 394.801ZM332.713 394.865C331.785 393.297 329.017 392.353 326.281 392.353C323.129 392.353 320.793 393.905 320.793 396.129C320.793 397.697 322.265 398.609 325.993 398.881C328.489 399.057 329.801 399.393 329.801 400.209C329.801 401.457 328.169 401.873 326.361 401.873C324.233 401.873 322.169 400.993 321.465 399.777L319.481 401.057C320.409 402.657 322.969 403.905 325.977 403.905C328.969 403.905 332.041 402.785 332.041 399.873C332.041 397.969 330.089 397.153 326.793 396.913C323.801 396.705 323.097 396.417 323.097 395.809C323.097 394.929 324.233 394.385 326.041 394.385C327.929 394.385 330.105 395.057 330.713 396.161L332.713 394.865ZM344.107 403.729L344.347 401.681L336.715 401.681L337.115 398.449L344.027 398.449L344.283 396.401L337.371 396.401L337.595 394.577L345.179 394.577L345.419 392.529L335.627 392.529L334.267 403.729L344.107 403.729Z" fill="white"/>
<path d="M254.606 187.781C253.678 186.213 251.79 185.365 249.246 185.365C245.006 185.365 241.822 187.797 241.822 192.005C241.822 195.125 244.158 196.885 247.822 196.885C250.382 196.885 252.51 195.989 253.822 194.389L252.158 193.109C251.31 194.245 249.822 194.853 248.078 194.853C245.71 194.853 244.11 193.765 244.11 191.685C244.11 188.901 246.254 187.397 248.99 187.397C250.702 187.397 252.014 187.973 252.606 189.077L254.606 187.781ZM255.259 192.005C255.259 195.125 257.595 196.885 261.259 196.885C265.467 196.885 268.683 194.469 268.683 190.277C268.683 187.141 266.347 185.365 262.683 185.365C258.475 185.365 255.259 187.845 255.259 192.005ZM262.427 187.397C264.811 187.397 266.411 188.517 266.411 190.597C266.411 193.365 264.219 194.853 261.515 194.853C259.147 194.853 257.547 193.765 257.547 191.685C257.547 188.901 259.691 187.397 262.427 187.397ZM279.726 196.725L282.11 196.725L283.47 185.525L281.262 185.525L280.27 193.637L274.062 185.525L271.678 185.525L270.318 196.725L272.526 196.725L273.518 188.629L279.726 196.725ZM297.247 187.573L297.487 185.525L285.263 185.525L285.023 187.573L290.031 187.573L288.911 196.725L291.119 196.725L292.239 187.573L297.247 187.573ZM304.095 185.525L301.535 185.525L294.751 196.725L297.103 196.725L299.263 193.157L304.463 193.157L305.775 196.725L308.175 196.725L304.095 185.525ZM302.527 187.797L303.759 191.189L300.463 191.189L302.527 187.797ZM322.434 187.781C321.506 186.213 319.618 185.365 317.074 185.365C312.834 185.365 309.65 187.797 309.65 192.005C309.65 195.125 311.986 196.885 315.65 196.885C318.21 196.885 320.338 195.989 321.65 194.389L319.986 193.109C319.138 194.245 317.65 194.853 315.906 194.853C313.538 194.853 311.938 193.765 311.938 191.685C311.938 188.901 314.082 187.397 316.818 187.397C318.53 187.397 319.842 187.973 320.434 189.077L322.434 187.781ZM335.247 187.573L335.487 185.525L323.263 185.525L323.023 187.573L328.031 187.573L326.911 196.725L329.119 196.725L330.239 187.573L335.247 187.573ZM353.092 187.861C352.164 186.293 349.396 185.349 346.66 185.349C343.508 185.349 341.172 186.901 341.172 189.125C341.172 190.693 342.644 191.605 346.372 191.877C348.868 192.053 350.18 192.389 350.18 193.205C350.18 194.453 348.548 194.869 346.74 194.869C344.612 194.869 342.548 193.989 341.844 192.773L339.86 194.053C340.788 195.653 343.348 196.901 346.356 196.901C349.348 196.901 352.42 195.781 352.42 192.869C352.42 190.965 350.468 190.149 347.172 189.909C344.18 189.701 343.476 189.413 343.476 188.805C343.476 187.925 344.612 187.381 346.42 187.381C348.308 187.381 350.484 188.053 351.092 189.157L353.092 187.861ZM364.486 196.725L364.726 194.677L357.094 194.677L357.494 191.445L364.406 191.445L364.662 189.397L357.75 189.397L357.974 187.573L365.558 187.573L365.798 185.525L356.006 185.525L354.646 196.725L364.486 196.725ZM376.929 196.725L379.313 196.725L380.673 185.525L378.465 185.525L377.473 193.637L371.265 185.525L368.881 185.525L367.521 196.725L369.729 196.725L370.721 188.629L376.929 196.725ZM395.154 187.861C394.226 186.293 391.458 185.349 388.722 185.349C385.57 185.349 383.234 186.901 383.234 189.125C383.234 190.693 384.706 191.605 388.434 191.877C390.93 192.053 392.242 192.389 392.242 193.205C392.242 194.453 390.61 194.869 388.802 194.869C386.674 194.869 384.61 193.989 383.906 192.773L381.922 194.053C382.85 195.653 385.41 196.901 388.418 196.901C391.41 196.901 394.482 195.781 394.482 192.869C394.482 190.965 392.53 190.149 389.234 189.909C386.242 189.701 385.538 189.413 385.538 188.805C385.538 187.925 386.674 187.381 388.482 187.381C390.37 187.381 392.546 188.053 393.154 189.157L395.154 187.861ZM396.212 192.005C396.212 195.125 398.548 196.885 402.212 196.885C406.42 196.885 409.636 194.469 409.636 190.277C409.636 187.141 407.3 185.365 403.636 185.365C399.428 185.365 396.212 187.845 396.212 192.005ZM403.38 187.397C405.764 187.397 407.364 188.517 407.364 190.597C407.364 193.365 405.172 194.853 402.468 194.853C400.1 194.853 398.5 193.765 398.5 191.685C398.5 188.901 400.644 187.397 403.38 187.397ZM420.327 196.725L423.063 196.725L419.543 191.589C421.479 191.493 423.031 190.165 423.031 188.133C423.031 186.517 421.799 185.525 420.039 185.525L412.631 185.525L411.271 196.725L413.479 196.725L414.103 191.589L416.823 191.589L420.327 196.725ZM419.799 187.573C420.375 187.573 420.775 187.861 420.775 188.421C420.775 189.173 420.215 189.541 419.559 189.541L414.359 189.541L414.599 187.573L419.799 187.573ZM437.233 187.861C436.305 186.293 433.537 185.349 430.801 185.349C427.649 185.349 425.313 186.901 425.313 189.125C425.313 190.693 426.785 191.605 430.513 191.877C433.009 192.053 434.321 192.389 434.321 193.205C434.321 194.453 432.689 194.869 430.881 194.869C428.753 194.869 426.689 193.989 425.985 192.773L424.001 194.053C424.929 195.653 427.489 196.901 430.497 196.901C433.489 196.901 436.561 195.781 436.561 192.869C436.561 190.965 434.609 190.149 431.313 189.909C428.321 189.701 427.617 189.413 427.617 188.805C427.617 187.925 428.753 187.381 430.561 187.381C432.449 187.381 434.625 188.053 435.233 189.157L437.233 187.861Z" fill="white"/>
<path d="M822.519 379.609L822.775 377.561L816.023 377.561L816.263 375.577L823.687 375.577L823.927 373.529L814.295 373.529L812.935 384.729L815.143 384.729L815.767 379.609L822.519 379.609ZM825.169 384.729L834.849 384.729L835.089 382.681L827.617 382.681L828.737 373.529L826.529 373.529L825.169 384.729ZM846.9 384.729L847.14 382.681L839.508 382.681L839.908 379.449L846.82 379.449L847.076 377.401L840.164 377.401L840.388 375.577L847.972 375.577L848.212 373.529L838.42 373.529L837.06 384.729L846.9 384.729ZM860.127 384.729L862.943 384.729L857.567 378.409L862.895 373.529L859.887 373.529L856.223 376.889L853.359 373.529L850.543 373.529L854.719 378.441L847.839 384.729L850.831 384.729L856.063 379.945L860.127 384.729ZM881.475 375.865C880.547 374.297 877.779 373.353 875.043 373.353C871.891 373.353 869.555 374.905 869.555 377.129C869.555 378.697 871.027 379.609 874.755 379.881C877.251 380.057 878.563 380.393 878.563 381.209C878.563 382.457 876.931 382.873 875.123 382.873C872.995 382.873 870.931 381.993 870.227 380.777L868.243 382.057C869.171 383.657 871.731 384.905 874.739 384.905C877.731 384.905 880.803 383.785 880.803 380.873C880.803 378.969 878.851 378.153 875.555 377.913C872.563 377.705 871.859 377.417 871.859 376.809C871.859 375.929 872.995 375.385 874.803 375.385C876.691 375.385 878.867 376.057 879.475 377.161L881.475 375.865ZM892.869 384.729L893.109 382.681L885.477 382.681L885.877 379.449L892.789 379.449L893.045 377.401L886.133 377.401L886.357 375.577L893.941 375.577L894.181 373.529L884.389 373.529L883.029 384.729L892.869 384.729ZM905.312 384.729L907.696 384.729L909.056 373.529L906.848 373.529L905.856 381.641L899.648 373.529L897.264 373.529L895.904 384.729L898.112 384.729L899.104 376.633L905.312 384.729ZM923.537 375.865C922.609 374.297 919.841 373.353 917.105 373.353C913.953 373.353 911.617 374.905 911.617 377.129C911.617 378.697 913.089 379.609 916.817 379.881C919.313 380.057 920.625 380.393 920.625 381.209C920.625 382.457 918.993 382.873 917.185 382.873C915.057 382.873 912.993 381.993 912.289 380.777L910.305 382.057C911.233 383.657 913.793 384.905 916.801 384.905C919.793 384.905 922.865 383.785 922.865 380.873C922.865 378.969 920.913 378.153 917.617 377.913C914.625 377.705 913.921 377.417 913.921 376.809C913.921 375.929 915.057 375.385 916.865 375.385C918.753 375.385 920.929 376.057 921.537 377.161L923.537 375.865ZM924.595 380.009C924.595 383.129 926.931 384.889 930.595 384.889C934.803 384.889 938.019 382.473 938.019 378.281C938.019 375.145 935.683 373.369 932.019 373.369C927.811 373.369 924.595 375.849 924.595 380.009ZM931.763 375.401C934.147 375.401 935.747 376.521 935.747 378.601C935.747 381.369 933.555 382.857 930.851 382.857C928.483 382.857 926.883 381.769 926.883 379.689C926.883 376.905 929.027 375.401 931.763 375.401ZM948.71 384.729L951.446 384.729L947.926 379.593C949.862 379.497 951.414 378.169 951.414 376.137C951.414 374.521 950.182 373.529 948.422 373.529L941.014 373.529L939.654 384.729L941.862 384.729L942.486 379.593L945.206 379.593L948.71 384.729ZM948.182 375.577C948.758 375.577 949.158 375.865 949.158 376.425C949.158 377.177 948.598 377.545 947.942 377.545L942.742 377.545L942.982 375.577L948.182 375.577ZM965.615 375.865C964.687 374.297 961.919 373.353 959.183 373.353C956.031 373.353 953.695 374.905 953.695 377.129C953.695 378.697 955.167 379.609 958.895 379.881C961.391 380.057 962.703 380.393 962.703 381.209C962.703 382.457 961.071 382.873 959.263 382.873C957.135 382.873 955.071 381.993 954.367 380.777L952.383 382.057C953.311 383.657 955.871 384.905 958.879 384.905C961.871 384.905 964.943 383.785 964.943 380.873C964.943 378.969 962.991 378.153 959.695 377.913C956.703 377.705 955.999 377.417 955.999 376.809C955.999 375.929 957.135 375.385 958.943 375.385C960.831 375.385 963.007 376.057 963.615 377.161L965.615 375.865Z" fill="white"/>
<path d="M308.056 668.974C303.789 661.698 299.066 643.345 314.316 628.132C329.566 612.918 329.963 596.366 328.255 589.991C332.926 585.567 342.026 572.539 341.059 555.814C339.849 534.909 359.889 533.199 355.599 507.629C352.168 487.173 387.685 428.389 405.872 401.554M308.056 668.974C286.913 681.595 293.057 694.953 294.656 698.185C295.935 700.771 310.054 712.848 316.954 718.564C319.448 715.578 324.628 710.871 325.4 715.935C326.171 720.999 341.034 751.521 348.37 766.15C340.58 788.441 360.912 786.093 372.051 782.132C382.069 794.381 409.845 790.672 423.572 785.896L461.94 818.44C469.584 815.332 475.334 808.249 479.497 800.285M308.056 668.974L328.408 680.724M405.872 401.554C410.093 382.244 419.753 342.711 424.632 339.061C429.51 335.412 432.161 338.02 432.876 339.78M405.872 401.554L463.687 412.414M432.876 339.78C441.747 311.415 464.166 257.386 482.872 268.186M432.876 339.78L477.513 357.466M482.872 268.186C498.027 276.936 508.841 285.873 510.133 287.967C511.538 288.2 513.581 290.996 510.513 300.31C507.445 309.624 494.576 336.912 488.526 349.392M482.872 268.186C493.632 270.549 507.624 291.712 477.513 357.466M488.526 349.392C490.41 350.057 492.5 350.807 494.743 351.624M488.526 349.392C499.728 323.72 518.65 286.626 539.054 261.874M488.526 349.392L477.513 357.466M654.185 500.462L723.934 435.653C738.888 422.77 763.842 397.962 767.959 372.157M654.185 500.462C672.661 492.461 712.053 479.832 721.817 493.321C731.58 506.81 719.59 529.178 712.374 538.676C706.224 550.328 688.637 579.589 667.495 603.409C641.067 633.184 556.46 747.726 536.885 756.632M654.185 500.462L606.219 534.542M536.885 756.632C522.052 800.724 492.446 804.105 479.497 800.285M536.885 756.632C533.416 758.21 530.272 760.104 527.337 762.087M488.19 772.974C502.418 758.338 529.281 705.479 555.124 649.958M488.19 772.974L456.147 754.474M488.19 772.974C487.531 777.719 485.987 784.552 483.368 791.549M488.19 772.974C504.578 782.436 513.712 771.293 527.337 762.087M477.513 357.466L463.687 412.414M610.048 411.675C602.444 400.155 574.947 390.84 560.786 383.233M623.626 427.392C640.824 436.937 674.218 458.563 670.204 468.716M623.626 427.392C664.957 401.471 742.65 350.236 739.892 334.013M623.626 427.392L571.409 468.834M670.204 468.716C657.111 480.193 622.092 517.382 606.219 534.542M670.204 468.716C697.604 446.43 755.514 395.918 767.959 372.157M463.687 412.414L522.014 433.388M522.014 433.388C532.283 443.936 556.538 465.791 571.409 468.834M522.014 433.388C528.962 420.958 543.281 391.403 544.975 372.62M522.014 433.388C528.371 423.045 545.024 398.534 560.786 383.233M571.409 468.834C586.28 471.877 600.812 513.908 606.219 534.542M571.409 468.834C601.006 423.376 686.348 299.52 712.774 281.983M606.219 534.542C593.745 564.199 574.728 607.844 555.124 649.958M606.219 534.542L654.516 509.888L676.071 557.554L555.124 649.958M739.892 334.013C714.59 336.282 650.021 392.401 628.779 412.467C641.001 398.022 704.451 310.904 712.774 281.983M739.892 334.013C745.372 333.522 760.906 339.469 765.007 348.513C768.528 356.279 769.218 364.265 767.959 372.157M712.774 281.983C712.774 281.983 725.286 271.312 689.779 250.812C679.82 245.062 672.64 246.688 663.361 250.568M560.786 383.233C557.742 381.598 555.294 379.994 553.764 378.396C552.235 376.798 549.114 374.813 544.975 372.62M560.786 383.233C589.929 356.111 668.267 277.072 663.361 250.568M663.361 250.568C639.005 260.755 600.505 327.439 580.125 349.738C589.463 324.937 617.502 278.456 603.178 251.998M544.975 372.62C560.238 336.309 593.247 261.35 603.178 251.998M544.975 372.62C532.271 365.886 509.984 357.181 494.743 351.624M603.178 251.998C599.789 245.74 594.03 240.601 585.091 237.136C570.688 231.551 554.449 243.199 539.054 261.874M494.743 351.624L539.054 261.874M415.311 524.204L424.561 508.182L515.927 560.932M415.311 524.204L411.375 532.323M415.311 524.204L409.731 523.869L394.079 556.979L397.159 561.644M397.159 561.644L411.375 532.323M397.159 561.644L378.409 594.12M397.159 561.644L485.927 612.894M328.408 680.724C326.325 684.332 323.907 694.52 330.9 706.409L425.729 761.159L435.854 742.758M328.408 680.724L374.909 600.182M503.358 620.071L487.659 613.894L485.927 612.894M503.358 620.071L522.162 585.894M503.358 620.071L435.854 742.758M522.162 585.894L531.082 569.682L515.927 560.932M522.162 585.894L503.308 582.79M411.375 532.323L496.981 581.748L503.308 582.79M374.909 600.182L463.677 651.432L467.177 645.37L378.409 594.12M374.909 600.182L378.409 594.12M485.927 612.894L421.177 725.044L423.671 735.724L435.854 742.758M435.854 742.758L450.951 751.474M503.308 582.79C502.666 577.901 504.292 566.685 515.927 560.932M450.951 751.474C445.802 763.896 444.302 791.049 479.497 800.285M450.951 751.474L456.147 754.474M479.497 800.285C480.985 797.438 482.271 794.479 483.368 791.549M456.147 754.474C457.107 766.959 463.896 791.854 483.368 791.549M483.368 791.549C493.167 792.781 515.68 788.612 527.337 762.087" stroke="#FEF151" stroke-width="4"/>
<path d="M653.736 433.234L805.597 396.203M805.597 396.203L966.997 396.203M805.597 396.203L605.833 369.204M805.597 396.203L726.815 372.658M805.597 396.203L664.024 295.414M441.026 207.658L498.66 314.833M441.026 207.658L522.521 290.504M441.026 207.658L589.983 293.658M441.026 207.658L638.258 288.043M441.026 207.658L245.586 207.655M219.997 413.928L343.298 413.928L403.375 431.871M176.497 565.217L307.336 565.216L416.233 594.601" stroke="white"/>
</svg>
