<svg width="845" height="904" viewBox="0 0 845 904" fill="none" xmlns="http://www.w3.org/2000/svg">
<path d="M538.474 153.34C544.307 138.862 547.173 122.92 546.358 106.309C543.344 44.8517 491.084 -2.52602 429.628 0.488366C368.171 3.50275 320.799 55.7673 323.813 117.219C324.628 133.831 329.04 149.416 336.263 163.258C324.311 167.953 312.726 173.348 301.555 179.397C295.439 165.178 286.249 152.004 274.028 140.93C228.442 99.6066 157.989 103.062 116.667 148.648C75.3438 194.234 78.7995 264.687 124.385 306.01C135.941 316.486 149.098 324.086 162.971 328.848C157.915 340.144 153.508 351.779 149.789 363.703C136.27 358.787 121.567 356.427 106.301 357.176C44.8497 360.19 -2.52779 412.45 0.48661 473.907C3.50077 535.358 55.7653 582.736 117.217 579.722C131.053 579.043 144.179 575.866 156.174 570.651C160.699 582.543 165.921 594.083 171.778 605.214C160.206 611.171 149.487 619.267 140.231 629.478C98.9085 675.064 102.364 745.517 147.95 786.84C193.535 828.163 263.988 824.707 305.311 779.121C313.876 769.679 320.514 759.161 325.256 748.062C336.916 753.168 348.934 757.591 361.252 761.276C358.016 772.658 356.55 784.756 357.162 797.231C360.181 858.687 412.441 906.06 473.897 903.046C535.354 900.031 582.726 847.767 579.712 786.315C579.1 773.84 576.458 761.949 572.128 750.938C583.811 746.149 595.133 740.684 606.053 734.597C611.839 745.073 619.421 754.79 628.787 763.28C674.373 804.603 744.825 801.147 786.148 755.561C827.471 709.975 824.015 639.522 778.43 598.199C768.398 589.101 757.158 582.18 745.294 577.392C750.092 565.64 754.198 553.545 757.567 541.159C770.019 545.174 783.388 547.047 797.229 546.368C858.681 543.354 906.058 491.094 903.044 429.637C900.029 368.18 847.765 320.807 786.309 323.822C771.043 324.571 756.646 328.358 743.673 334.574C738.767 322.99 733.199 311.77 727.016 300.958C740.127 294.871 752.265 286.114 762.583 274.727C803.911 229.141 800.455 158.687 754.87 117.364C709.284 76.0413 638.826 79.4972 597.504 125.083C586.508 137.213 578.681 151.109 573.98 165.742C562.461 160.927 550.609 156.78 538.474 153.34Z" fill="#A3E9FF"/>
</svg>
