<svg width="730" height="764" viewBox="0 0 730 764" fill="none" xmlns="http://www.w3.org/2000/svg">
<path d="M721.418 171.517C728.183 196.978 730.815 222.5 729.729 247.097C728.521 273.558 723.083 298.986 713.733 322.185L497.502 763.085L118.676 506.227C118.508 506.11 118.358 506.07 118.192 505.958L90.5609 487.222C70.606 471.31 53.0324 451.581 38.7481 428.592C25.9692 408.15 15.8618 385.244 9.23501 360.303C-22.1903 242.076 35.8584 123.721 138.625 96.4771C214.018 76.4931 292.808 110.991 341.852 177.45C351.438 95.454 402.725 26.4645 478.114 6.48266C580.878 -20.7545 689.993 53.2894 721.418 171.517Z" fill="#FDACFF"/>
</svg>
