<svg width="29" height="30" viewBox="0 0 29 30" fill="none" xmlns="http://www.w3.org/2000/svg">
	<path d="M9.23143 6.41333C9.14249 6.50227 9.07498 6.60948 9.0186 6.72702L9.01225 6.72066L0.105061 26.7857L0.113796 26.7944C-0.0513867 27.1144 0.224977 27.7656 0.791206 28.3327C1.35744 28.8989 2.00864 29.1753 2.32868 29.0101L2.33662 29.018L22.4016 20.11L22.3953 20.1029C22.512 20.0473 22.6192 19.9798 22.709 19.8893C23.9494 18.6488 21.9378 14.6264 18.2172 10.905C14.4951 7.18365 10.4727 5.17287 9.23143 6.41333Z" fill="#DD2E44" />
	<path d="M10.3226 9.99609L0.329011 26.2809L0.105061 26.7852L0.113796 26.794C-0.0513867 27.114 0.224977 27.7652 0.791206 28.3322C0.975449 28.5165 1.16684 28.6562 1.35426 28.7746L13.4992 13.9668L10.3226 9.99609Z" fill="#EA596E" />
	<path d="M18.2739 10.8449C21.9825 14.5551 24.0418 18.51 22.8712 19.679C21.7014 20.8496 17.7465 18.7911 14.0355 15.0824C10.326 11.3722 8.26757 7.41572 9.43735 6.24594C10.6079 5.07616 14.5628 7.1346 18.2739 10.8449Z" fill="#A0041E" />
	<path d="M14.7649 11.2759C14.6069 11.4037 14.4004 11.4704 14.182 11.4466C13.4927 11.372 12.913 11.1321 12.5072 10.7533C12.0775 10.3523 11.8655 9.81384 11.9235 9.27461C12.0251 8.32799 12.9749 7.45919 14.5942 7.6339C15.224 7.7014 15.5051 7.49889 15.5146 7.40201C15.5257 7.30591 15.2946 7.04782 14.6649 6.97952C13.9755 6.90487 13.3958 6.66504 12.9892 6.28623C12.5596 5.88518 12.3467 5.34675 12.4055 4.80752C12.5088 3.86089 13.4578 2.99209 15.0754 3.1676C15.5345 3.21684 15.7767 3.12233 15.8791 3.06118C15.9609 3.01115 15.9935 2.9635 15.9967 2.93571C16.0062 2.83962 15.7783 2.58152 15.1469 2.51322C14.7109 2.46557 14.3949 2.07485 14.4433 1.63807C14.4902 1.20208 14.8801 0.886801 15.3177 0.93445C16.9353 1.10837 17.6787 2.15903 17.5762 3.10645C17.473 4.05467 16.524 4.92188 14.9047 4.74796C14.4457 4.69793 14.2059 4.79322 14.1026 4.85437C14.0208 4.90361 13.9875 4.95205 13.9843 4.97906C13.974 5.07594 14.2035 5.33325 14.8348 5.40154C16.4525 5.57626 17.1958 6.62612 17.0934 7.57354C16.9909 8.52017 16.0419 9.38897 14.4234 9.21346C13.9644 9.16423 13.723 9.25952 13.6198 9.31988C13.5372 9.3707 13.5054 9.41835 13.5022 9.44535C13.4919 9.54145 13.7214 9.79955 14.352 9.86784C14.7872 9.91549 15.104 10.307 15.0556 10.743C15.0334 10.9606 14.923 11.1488 14.7649 11.2759Z" fill="#9D6BEE" />
	<path d="M24.3512 18.6206C25.9181 18.1783 26.9989 18.8771 27.2562 19.7944C27.5135 20.7108 26.956 21.8711 25.39 22.3118C24.7785 22.4834 24.595 22.7756 24.6197 22.8685C24.6467 22.9622 24.9572 23.1163 25.5671 22.944C27.1331 22.5032 28.214 23.2021 28.4713 24.1185C28.7302 25.0358 28.1711 26.1944 26.6042 26.636C25.9935 26.8075 25.8093 27.1006 25.8363 27.1935C25.8625 27.2864 26.1722 27.4405 26.7829 27.2689C27.2038 27.1506 27.6438 27.396 27.7621 27.8177C27.8796 28.2402 27.6342 28.6785 27.2118 28.7977C25.6465 29.2384 24.5649 28.5411 24.306 27.6231C24.0487 26.7067 24.6069 25.548 26.1746 25.1064C26.7861 24.9341 26.9695 24.6427 26.9425 24.549C26.9171 24.456 26.6074 24.3012 25.9975 24.4727C24.4299 24.9143 23.3498 24.217 23.0917 23.2982C22.8336 22.3817 23.3919 21.2231 24.9588 20.7807C25.5687 20.61 25.7521 20.3161 25.7267 20.224C25.6997 20.1303 25.3908 19.9762 24.7801 20.1478C24.3576 20.2669 23.92 20.0207 23.8009 19.599C23.6826 19.1781 23.9287 18.7397 24.3512 18.6206Z" fill="#0F6CF6" />
	<path d="M18.2675 16.478C18.034 16.478 17.8037 16.3756 17.6464 16.1802C17.3725 15.8371 17.4288 15.3376 17.7703 15.0636C17.9435 14.9247 22.073 11.6814 27.9092 12.516C28.3436 12.578 28.6454 12.9798 28.5835 13.4142C28.5215 13.8478 28.1229 14.1528 27.6845 14.0876C22.5281 13.3554 18.8003 16.2747 18.7638 16.3041C18.6161 16.4216 18.4414 16.478 18.2675 16.478Z" fill="#9D6BEE" />
	<path d="M4.57026 13.175C4.49481 13.175 4.41778 13.1639 4.34154 13.1416C3.92144 13.0154 3.68319 12.573 3.80946 12.1529C4.70923 9.15659 5.52482 4.37501 4.52261 3.1282C4.41063 2.98684 4.24148 2.84786 3.85393 2.87724C3.10902 2.93442 3.1797 4.50605 3.18049 4.52193C3.21385 4.95951 2.88507 5.3407 2.44829 5.37326C2.00436 5.40026 1.62952 5.07783 1.59696 4.64026C1.51516 3.54512 1.85585 1.43586 3.73481 1.29371C4.57343 1.23018 5.2699 1.52163 5.76148 2.13313C7.64441 4.47666 5.73289 11.2706 5.33105 12.6096C5.22781 12.9534 4.91174 13.175 4.57026 13.175Z" fill="#0F6CF6" />
	<path d="M20.2498 9.20276C20.9077 9.20276 21.441 8.66943 21.441 8.01154C21.441 7.35364 20.9077 6.82031 20.2498 6.82031C19.5919 6.82031 19.0586 7.35364 19.0586 8.01154C19.0586 8.66943 19.5919 9.20276 20.2498 9.20276Z" fill="#4081FF" />
	<path d="M1.5883 16.3524C2.46549 16.3524 3.1766 15.6413 3.1766 14.7641C3.1766 13.8869 2.46549 13.1758 1.5883 13.1758C0.711106 13.1758 0 13.8869 0 14.7641C0 15.6413 0.711106 16.3524 1.5883 16.3524Z" fill="#8D40F2" />
	<path d="M25.8084 17.1442C26.4663 17.1442 26.9996 16.6108 26.9996 15.9529C26.9996 15.295 26.4663 14.7617 25.8084 14.7617C25.1505 14.7617 24.6172 15.295 24.6172 15.9529C24.6172 16.6108 25.1505 17.1442 25.8084 17.1442Z" fill="#4081FF" />
	<path d="M18.6639 26.6754C19.3218 26.6754 19.8551 26.1421 19.8551 25.4842C19.8551 24.8263 19.3218 24.293 18.6639 24.293C18.006 24.293 17.4727 24.8263 17.4727 25.4842C17.4727 26.1421 18.006 26.6754 18.6639 26.6754Z" fill="#4081FF" />
	<path d="M22.2367 5.23129C23.1139 5.23129 23.825 4.52018 23.825 3.64299C23.825 2.76579 23.1139 2.05469 22.2367 2.05469C21.3595 2.05469 20.6484 2.76579 20.6484 3.64299C20.6484 4.52018 21.3595 5.23129 22.2367 5.23129Z" fill="#F6824C" />
	<path d="M25.8084 8.40979C26.4663 8.40979 26.9996 7.87646 26.9996 7.21857C26.9996 6.56067 26.4663 6.02734 25.8084 6.02734C25.1505 6.02734 24.6172 6.56067 24.6172 7.21857C24.6172 7.87646 25.1505 8.40979 25.8084 8.40979Z" fill="#F6824C" />
	<path d="M23.4256 11.5856C24.0835 11.5856 24.6168 11.0522 24.6168 10.3943C24.6168 9.73645 24.0835 9.20312 23.4256 9.20312C22.7677 9.20312 22.2344 9.73645 22.2344 10.3943C22.2344 11.0522 22.7677 11.5856 23.4256 11.5856Z" fill="#F6824C" />
	<path d="M5.95685 20.3239C6.61475 20.3239 7.14807 19.7905 7.14807 19.1326C7.14807 18.4747 6.61475 17.9414 5.95685 17.9414C5.29895 17.9414 4.76562 18.4747 4.76562 19.1326C4.76562 19.7905 5.29895 20.3239 5.95685 20.3239Z" fill="#F6824C" />
</svg>
