<svg version="1.0" xmlns="http://www.w3.org/2000/svg"
 width="1920.000000pt" height="1080.000000pt" viewBox="0 0 1920.000000 1080.000000"
 preserveAspectRatio="xMidYMid meet">

<g transform="translate(0.000000,1080.000000) scale(0.100000,-0.100000)"
fill="#FFFFFF" stroke="none">
<path d="M0 5400 l0 -5400 9600 0 9600 0 0 5400 0 5400 -9600 0 -9600 0 0
-5400z m10080 1080 c303 -27 629 -109 960 -242 246 -98 651 -313 658 -349 3
-16 -130 -220 -228 -350 -473 -626 -1032 -1035 -1603 -1174 -181 -44 -338 -58
-582 -52 -376 9 -687 76 -1085 234 -285 112 -690 326 -690 364 0 20 83 152
175 279 416 575 909 979 1430 1175 142 53 374 104 540 118 91 8 318 6 425 -3z"/>
</g>
</svg>
