<svg width="286" height="130" viewBox="0 0 286 130" fill="none" xmlns="http://www.w3.org/2000/svg">
<mask id="path-1-outside-1" maskUnits="userSpaceOnUse" x="-6.76509" y="-34.9537" width="302.017" height="176.859" fill="black">
<rect fill="white" x="-6.76509" y="-34.9537" width="302.017" height="176.859"/>
<path fill-rule="evenodd" clip-rule="evenodd" d="M40.4881 38.3127L11.3591 67.5541L22.0454 107.436L61.8607 118.076L90.9898 88.8348L80.3353 49.072L40.4881 38.3127ZM27.8585 101.54L59.7235 110.1L83.0395 86.7544L74.4904 54.8489L42.6254 46.289L19.3094 69.6346L27.8585 101.54ZM49.4857 89.4928L45.2744 84.2413L43.8906 87.164L41.4223 86.039L44.7119 79.2881L51.609 87.9031L49.4857 89.4928ZM35.5458 86.4653L31.3345 81.2138L29.9507 84.1365L27.4505 82.8925L30.7401 76.1416L37.6372 84.7565L35.5458 86.4653ZM116.397 58.5489C119.846 57.6248 121.294 54.9402 120.369 51.4877C119.444 48.0353 116.88 46.5531 113.55 47.4454L108.317 48.8474L111.284 59.9191L116.397 58.5489ZM109.963 78.7747L102.403 50.5598L99.4296 51.3564L98.026 46.1182L112.892 42.135C115.984 41.3065 119.006 41.645 121.419 43.04C123.951 44.4031 125.755 46.8544 126.617 50.0688C128.339 56.4975 125.119 62.0814 118.697 63.8021L112.751 65.3954L115.941 77.3004L109.995 78.8937L109.963 78.7747ZM145.775 52.5913C144.652 49.8297 142.39 48.5219 139.655 49.2548C136.8 50.0196 135.019 52.4108 135.071 55.4592L145.775 52.5913ZM146.006 69.6274C138.513 71.635 131.607 67.7435 129.63 60.3624C127.62 52.8623 131.211 46.2857 138.466 44.3419C144.769 42.653 150.294 46.1488 152.112 52.9347C152.304 53.649 152.408 54.5142 152.504 54.8713L152.544 55.4984L135.895 59.9596C137.391 63.6418 140.797 65.4089 144.84 64.3255C147.813 63.5289 149.507 61.2886 150.267 60.3193C150.354 60.1684 150.473 60.1366 150.441 60.0175L150.908 59.382L154.586 63.1177L154.206 63.6023C153.803 64.4759 151 68.2891 146.006 69.6274ZM169.219 63.0246C166.365 63.7894 159.45 64.6215 157.217 56.2879L154.442 45.9306L151.469 46.7272L150.161 41.8462L153.253 41.0177L151.562 34.708L157.271 33.1784L158.961 39.4881L164.551 37.9904L165.859 42.8715L160.269 44.3692L162.917 54.2503C163.906 57.9409 166.389 58.1688 168.291 57.6589C168.886 57.4996 169.211 57.285 169.211 57.285L169.979 56.8238L170.203 57.6572L171.415 62.1811L170.852 62.4594C170.852 62.4594 170.171 62.7697 169.219 63.0246ZM186.202 58.8568C178.71 60.8644 171.804 56.9729 169.826 49.5918C167.848 42.2107 171.883 35.3876 179.495 33.3482C180.684 33.0296 182.024 32.7981 183.428 32.8047C184.562 32.756 185.284 33.0729 186.244 33.326L185.522 38.2408C183.245 37.8301 182.056 38.1487 180.866 38.4674C176.704 39.5827 174.473 43.6255 175.622 47.9114C176.993 53.0305 181.437 54.3918 185.123 53.404C189.048 52.3524 190.867 48.6751 190.986 48.6432L191.389 47.7696L195.186 51.4734L194.925 51.9262C194.869 52.1961 192.624 57.1361 186.202 58.8568ZM206.776 53.3441C201.187 54.8418 197.59 52.3603 195.899 46.0507L193.156 35.8123L190.302 36.5771L188.93 31.458L197.493 29.1636L201.353 43.5687C202.342 47.2592 203.644 48.3139 206.379 47.581C210.898 46.3701 212.328 42.6693 211.18 38.3835L207.958 26.3594L213.785 24.798L218.857 43.727C218.921 43.9651 220.325 49.2033 220.325 49.2033L214.735 50.701L214.034 48.0819C213.482 50.7816 210.225 52.42 206.776 53.3441ZM230.728 25.2347C227.041 26.2225 225.547 29.6852 226.823 34.4472C227.78 38.0187 230.616 41.4694 234.66 40.3859C238.228 39.43 239.809 35.8164 238.596 31.2925C237.384 26.7686 234.176 24.3106 230.728 25.2347ZM236.626 45.3458C233.415 46.2062 230.892 45.3511 229.384 44.4793L229.926 46.5031L224.336 48.0008L216.681 19.4288L213.826 20.1936L212.518 15.3125L217.513 13.9741C220.011 13.305 221.2 12.9863 221.2 12.9863L224.167 24.058C225.037 22.5488 226.827 20.6657 230.156 19.7734C236.578 18.0527 242.35 21.9928 244.392 29.612C246.402 37.1122 243.286 43.5613 236.626 45.3458ZM262.915 21.2036C261.793 18.442 259.531 17.1342 256.795 17.8671C253.941 18.6319 252.16 21.0231 252.212 24.0715L262.915 21.2036ZM263.146 38.2397C255.654 40.2473 248.748 36.3558 246.77 28.9747C244.761 21.4745 248.352 14.898 255.606 12.9542C261.909 11.2653 267.435 14.7611 269.253 21.547C269.444 22.2613 269.549 23.1265 269.644 23.4836L269.685 24.1107L253.036 28.5719C254.532 32.2541 257.937 34.0212 261.981 32.9378C264.954 32.1411 266.648 29.9009 267.408 28.9316C267.495 28.7807 267.614 28.7488 267.582 28.6298L268.049 27.9943L271.727 31.7299L271.347 32.2146C271.062 33.0563 268.141 36.9014 263.146 38.2397Z"/>
</mask>
<path fill-rule="evenodd" clip-rule="evenodd" d="M40.4881 38.3127L11.3591 67.5541L22.0454 107.436L61.8607 118.076L90.9898 88.8348L80.3353 49.072L40.4881 38.3127ZM27.8585 101.54L59.7235 110.1L83.0395 86.7544L74.4904 54.8489L42.6254 46.289L19.3094 69.6346L27.8585 101.54ZM49.4857 89.4928L45.2744 84.2413L43.8906 87.164L41.4223 86.039L44.7119 79.2881L51.609 87.9031L49.4857 89.4928ZM35.5458 86.4653L31.3345 81.2138L29.9507 84.1365L27.4505 82.8925L30.7401 76.1416L37.6372 84.7565L35.5458 86.4653ZM116.397 58.5489C119.846 57.6248 121.294 54.9402 120.369 51.4877C119.444 48.0353 116.88 46.5531 113.55 47.4454L108.317 48.8474L111.284 59.9191L116.397 58.5489ZM109.963 78.7747L102.403 50.5598L99.4296 51.3564L98.026 46.1182L112.892 42.135C115.984 41.3065 119.006 41.645 121.419 43.04C123.951 44.4031 125.755 46.8544 126.617 50.0688C128.339 56.4975 125.119 62.0814 118.697 63.8021L112.751 65.3954L115.941 77.3004L109.995 78.8937L109.963 78.7747ZM145.775 52.5913C144.652 49.8297 142.39 48.5219 139.655 49.2548C136.8 50.0196 135.019 52.4108 135.071 55.4592L145.775 52.5913ZM146.006 69.6274C138.513 71.635 131.607 67.7435 129.63 60.3624C127.62 52.8623 131.211 46.2857 138.466 44.3419C144.769 42.653 150.294 46.1488 152.112 52.9347C152.304 53.649 152.408 54.5142 152.504 54.8713L152.544 55.4984L135.895 59.9596C137.391 63.6418 140.797 65.4089 144.84 64.3255C147.813 63.5289 149.507 61.2886 150.267 60.3193C150.354 60.1684 150.473 60.1366 150.441 60.0175L150.908 59.382L154.586 63.1177L154.206 63.6023C153.803 64.4759 151 68.2891 146.006 69.6274ZM169.219 63.0246C166.365 63.7894 159.45 64.6215 157.217 56.2879L154.442 45.9306L151.469 46.7272L150.161 41.8462L153.253 41.0177L151.562 34.708L157.271 33.1784L158.961 39.4881L164.551 37.9904L165.859 42.8715L160.269 44.3692L162.917 54.2503C163.906 57.9409 166.389 58.1688 168.291 57.6589C168.886 57.4996 169.211 57.285 169.211 57.285L169.979 56.8238L170.203 57.6572L171.415 62.1811L170.852 62.4594C170.852 62.4594 170.171 62.7697 169.219 63.0246ZM186.202 58.8568C178.71 60.8644 171.804 56.9729 169.826 49.5918C167.848 42.2107 171.883 35.3876 179.495 33.3482C180.684 33.0296 182.024 32.7981 183.428 32.8047C184.562 32.756 185.284 33.0729 186.244 33.326L185.522 38.2408C183.245 37.8301 182.056 38.1487 180.866 38.4674C176.704 39.5827 174.473 43.6255 175.622 47.9114C176.993 53.0305 181.437 54.3918 185.123 53.404C189.048 52.3524 190.867 48.6751 190.986 48.6432L191.389 47.7696L195.186 51.4734L194.925 51.9262C194.869 52.1961 192.624 57.1361 186.202 58.8568ZM206.776 53.3441C201.187 54.8418 197.59 52.3603 195.899 46.0507L193.156 35.8123L190.302 36.5771L188.93 31.458L197.493 29.1636L201.353 43.5687C202.342 47.2592 203.644 48.3139 206.379 47.581C210.898 46.3701 212.328 42.6693 211.18 38.3835L207.958 26.3594L213.785 24.798L218.857 43.727C218.921 43.9651 220.325 49.2033 220.325 49.2033L214.735 50.701L214.034 48.0819C213.482 50.7816 210.225 52.42 206.776 53.3441ZM230.728 25.2347C227.041 26.2225 225.547 29.6852 226.823 34.4472C227.78 38.0187 230.616 41.4694 234.66 40.3859C238.228 39.43 239.809 35.8164 238.596 31.2925C237.384 26.7686 234.176 24.3106 230.728 25.2347ZM236.626 45.3458C233.415 46.2062 230.892 45.3511 229.384 44.4793L229.926 46.5031L224.336 48.0008L216.681 19.4288L213.826 20.1936L212.518 15.3125L217.513 13.9741C220.011 13.305 221.2 12.9863 221.2 12.9863L224.167 24.058C225.037 22.5488 226.827 20.6657 230.156 19.7734C236.578 18.0527 242.35 21.9928 244.392 29.612C246.402 37.1122 243.286 43.5613 236.626 45.3458ZM262.915 21.2036C261.793 18.442 259.531 17.1342 256.795 17.8671C253.941 18.6319 252.16 21.0231 252.212 24.0715L262.915 21.2036ZM263.146 38.2397C255.654 40.2473 248.748 36.3558 246.77 28.9747C244.761 21.4745 248.352 14.898 255.606 12.9542C261.909 11.2653 267.435 14.7611 269.253 21.547C269.444 22.2613 269.549 23.1265 269.644 23.4836L269.685 24.1107L253.036 28.5719C254.532 32.2541 257.937 34.0212 261.981 32.9378C264.954 32.1411 266.648 29.9009 267.408 28.9316C267.495 28.7807 267.614 28.7488 267.582 28.6298L268.049 27.9943L271.727 31.7299L271.347 32.2146C271.062 33.0563 268.141 36.9014 263.146 38.2397Z" fill="#191818"/>
<path fill-rule="evenodd" clip-rule="evenodd" d="M40.4881 38.3127L11.3591 67.5541L22.0454 107.436L61.8607 118.076L90.9898 88.8348L80.3353 49.072L40.4881 38.3127ZM27.8585 101.54L59.7235 110.1L83.0395 86.7544L74.4904 54.8489L42.6254 46.289L19.3094 69.6346L27.8585 101.54ZM49.4857 89.4928L45.2744 84.2413L43.8906 87.164L41.4223 86.039L44.7119 79.2881L51.609 87.9031L49.4857 89.4928ZM35.5458 86.4653L31.3345 81.2138L29.9507 84.1365L27.4505 82.8925L30.7401 76.1416L37.6372 84.7565L35.5458 86.4653ZM116.397 58.5489C119.846 57.6248 121.294 54.9402 120.369 51.4877C119.444 48.0353 116.88 46.5531 113.55 47.4454L108.317 48.8474L111.284 59.9191L116.397 58.5489ZM109.963 78.7747L102.403 50.5598L99.4296 51.3564L98.026 46.1182L112.892 42.135C115.984 41.3065 119.006 41.645 121.419 43.04C123.951 44.4031 125.755 46.8544 126.617 50.0688C128.339 56.4975 125.119 62.0814 118.697 63.8021L112.751 65.3954L115.941 77.3004L109.995 78.8937L109.963 78.7747ZM145.775 52.5913C144.652 49.8297 142.39 48.5219 139.655 49.2548C136.8 50.0196 135.019 52.4108 135.071 55.4592L145.775 52.5913ZM146.006 69.6274C138.513 71.635 131.607 67.7435 129.63 60.3624C127.62 52.8623 131.211 46.2857 138.466 44.3419C144.769 42.653 150.294 46.1488 152.112 52.9347C152.304 53.649 152.408 54.5142 152.504 54.8713L152.544 55.4984L135.895 59.9596C137.391 63.6418 140.797 65.4089 144.84 64.3255C147.813 63.5289 149.507 61.2886 150.267 60.3193C150.354 60.1684 150.473 60.1366 150.441 60.0175L150.908 59.382L154.586 63.1177L154.206 63.6023C153.803 64.4759 151 68.2891 146.006 69.6274ZM169.219 63.0246C166.365 63.7894 159.45 64.6215 157.217 56.2879L154.442 45.9306L151.469 46.7272L150.161 41.8462L153.253 41.0177L151.562 34.708L157.271 33.1784L158.961 39.4881L164.551 37.9904L165.859 42.8715L160.269 44.3692L162.917 54.2503C163.906 57.9409 166.389 58.1688 168.291 57.6589C168.886 57.4996 169.211 57.285 169.211 57.285L169.979 56.8238L170.203 57.6572L171.415 62.1811L170.852 62.4594C170.852 62.4594 170.171 62.7697 169.219 63.0246ZM186.202 58.8568C178.71 60.8644 171.804 56.9729 169.826 49.5918C167.848 42.2107 171.883 35.3876 179.495 33.3482C180.684 33.0296 182.024 32.7981 183.428 32.8047C184.562 32.756 185.284 33.0729 186.244 33.326L185.522 38.2408C183.245 37.8301 182.056 38.1487 180.866 38.4674C176.704 39.5827 174.473 43.6255 175.622 47.9114C176.993 53.0305 181.437 54.3918 185.123 53.404C189.048 52.3524 190.867 48.6751 190.986 48.6432L191.389 47.7696L195.186 51.4734L194.925 51.9262C194.869 52.1961 192.624 57.1361 186.202 58.8568ZM206.776 53.3441C201.187 54.8418 197.59 52.3603 195.899 46.0507L193.156 35.8123L190.302 36.5771L188.93 31.458L197.493 29.1636L201.353 43.5687C202.342 47.2592 203.644 48.3139 206.379 47.581C210.898 46.3701 212.328 42.6693 211.18 38.3835L207.958 26.3594L213.785 24.798L218.857 43.727C218.921 43.9651 220.325 49.2033 220.325 49.2033L214.735 50.701L214.034 48.0819C213.482 50.7816 210.225 52.42 206.776 53.3441ZM230.728 25.2347C227.041 26.2225 225.547 29.6852 226.823 34.4472C227.78 38.0187 230.616 41.4694 234.66 40.3859C238.228 39.43 239.809 35.8164 238.596 31.2925C237.384 26.7686 234.176 24.3106 230.728 25.2347ZM236.626 45.3458C233.415 46.2062 230.892 45.3511 229.384 44.4793L229.926 46.5031L224.336 48.0008L216.681 19.4288L213.826 20.1936L212.518 15.3125L217.513 13.9741C220.011 13.305 221.2 12.9863 221.2 12.9863L224.167 24.058C225.037 22.5488 226.827 20.6657 230.156 19.7734C236.578 18.0527 242.35 21.9928 244.392 29.612C246.402 37.1122 243.286 43.5613 236.626 45.3458ZM262.915 21.2036C261.793 18.442 259.531 17.1342 256.795 17.8671C253.941 18.6319 252.16 21.0231 252.212 24.0715L262.915 21.2036ZM263.146 38.2397C255.654 40.2473 248.748 36.3558 246.77 28.9747C244.761 21.4745 248.352 14.898 255.606 12.9542C261.909 11.2653 267.435 14.7611 269.253 21.547C269.444 22.2613 269.549 23.1265 269.644 23.4836L269.685 24.1107L253.036 28.5719C254.532 32.2541 257.937 34.0212 261.981 32.9378C264.954 32.1411 266.648 29.9009 267.408 28.9316C267.495 28.7807 267.614 28.7488 267.582 28.6298L268.049 27.9943L271.727 31.7299L271.347 32.2146C271.062 33.0563 268.141 36.9014 263.146 38.2397Z" stroke="white" stroke-width="20" mask="url(#path-1-outside-1)"/>
</svg>
