<svg width="25" height="25" viewBox="0 0 25 25" fill="none" xmlns="http://www.w3.org/2000/svg">
	<g clip-path="url(#clip0)">
		<path d="M24.4773 7.55607C24.4211 6.28085 24.2149 5.40416 23.9195 4.64449C23.6147 3.83812 23.1459 3.11617 22.5316 2.51602C21.9315 1.90652 21.2048 1.43292 20.4077 1.13294C19.6437 0.837529 18.7715 0.631312 17.4963 0.575088C16.2116 0.514102 15.8037 0.5 12.5453 0.5C9.28685 0.5 8.879 0.514102 7.59903 0.570326C6.32381 0.626551 5.44712 0.832951 4.68763 1.12817C3.88108 1.43292 3.15914 1.90176 2.55898 2.51602C1.94949 3.11617 1.47607 3.84288 1.1759 4.63991C0.880498 5.40416 0.674281 6.27609 0.618057 7.5513C0.557071 8.83604 0.542969 9.2439 0.542969 12.5023C0.542969 15.7608 0.557071 16.1686 0.613295 17.4486C0.669519 18.7238 0.875919 19.6005 1.17133 20.3602C1.47607 21.1666 1.94949 21.8885 2.55898 22.4887C3.15914 23.0982 3.88584 23.5718 4.68287 23.8718C5.44712 24.1672 6.31905 24.3734 7.59445 24.4296C8.87424 24.486 9.28227 24.4999 12.5407 24.4999C15.7992 24.4999 16.207 24.486 17.487 24.4296C18.7622 24.3734 19.6389 24.1672 20.3984 23.8718C22.0113 23.2482 23.2865 21.9729 23.9101 20.3602C24.2053 19.596 24.4117 18.7238 24.468 17.4486C24.5242 16.1686 24.5383 15.7608 24.5383 12.5023C24.5383 9.2439 24.5335 8.83604 24.4773 7.55607ZM22.3161 17.3549C22.2644 18.527 22.0675 19.1599 21.9034 19.5819C21.5002 20.6274 20.6703 21.4572 19.6248 21.8605C19.2028 22.0246 18.5653 22.2215 17.3978 22.2729C16.1319 22.3293 15.7523 22.3433 12.5501 22.3433C9.34784 22.3433 8.96343 22.3293 7.70213 22.2729C6.53003 22.2215 5.8971 22.0246 5.47514 21.8605C4.95484 21.6682 4.48123 21.3634 4.09682 20.9649C3.69831 20.5758 3.39356 20.1069 3.20126 19.5866C3.03717 19.1647 2.84029 18.527 2.78883 17.3596C2.73242 16.0937 2.7185 15.7139 2.7185 12.5117C2.7185 9.30946 2.73242 8.92505 2.78883 7.66394C2.84029 6.49183 3.03717 5.8589 3.20126 5.43694C3.39356 4.91645 3.69831 4.44303 4.10158 4.05843C4.49057 3.65992 4.95941 3.35517 5.4799 3.16306C5.90186 2.99896 6.53955 2.80209 7.7069 2.75044C8.97277 2.69422 9.3526 2.68011 12.5546 2.68011C15.7616 2.68011 16.1413 2.69422 17.4026 2.75044C18.5747 2.80209 19.2076 2.99896 19.6296 3.16306C20.1499 3.35517 20.6235 3.65992 21.0079 4.05843C21.4064 4.44761 21.7111 4.91645 21.9034 5.43694C22.0675 5.8589 22.2644 6.49641 22.3161 7.66394C22.3723 8.92981 22.3864 9.30946 22.3864 12.5117C22.3864 15.7139 22.3723 16.089 22.3161 17.3549Z" fill="white" />
		<path d="M12.5442 6.33594C9.14049 6.33594 6.37891 9.09734 6.37891 12.5012C6.37891 15.9051 9.14049 18.6665 12.5442 18.6665C15.948 18.6665 18.7094 15.9051 18.7094 12.5012C18.7094 9.09734 15.948 6.33594 12.5442 6.33594ZM12.5442 16.5005C10.336 16.5005 8.54492 14.7095 8.54492 12.5012C8.54492 10.2929 10.336 8.50195 12.5442 8.50195C14.7525 8.50195 16.5434 10.2929 16.5434 12.5012C16.5434 14.7095 14.7525 16.5005 12.5442 16.5005Z" fill="white" />
		<path d="M20.3944 6.09165C20.3944 6.88649 19.75 7.53097 18.9549 7.53097C18.1601 7.53097 17.5156 6.88649 17.5156 6.09165C17.5156 5.29664 18.1601 4.65234 18.9549 4.65234C19.75 4.65234 20.3944 5.29664 20.3944 6.09165Z" fill="white" />
	</g>
	<defs>
		<clipPath id="clip0">
			<rect width="24" height="24" fill="white" transform="translate(0.5 0.5)" />
		</clipPath>
	</defs>
</svg>
