<svg width="291" height="291" viewBox="0 0 291 291" fill="none" xmlns="http://www.w3.org/2000/svg">
<path d="M163.183 272.778C233.476 263.012 282.543 198.111 272.777 127.817C263.011 57.5239 198.11 8.45686 127.817 18.223C57.5232 27.9892 8.45611 92.8903 18.2223 163.184C27.9884 233.477 92.8897 282.544 163.183 272.778Z" fill="#03C197"/>
<path fill-rule="evenodd" clip-rule="evenodd" d="M215.548 172.753L212.775 152.798C212.58 151.393 211.247 150.385 209.843 150.58C208.438 150.775 207.43 152.108 207.625 153.513L210.398 173.469C210.593 174.873 211.926 175.881 213.331 175.686C214.794 175.482 215.743 174.158 215.548 172.753ZM76.085 195.947C74.1538 196.215 72.5168 196.025 70.9644 195.585C70.714 195.5 70.4133 195.482 70.1207 195.523C68.9503 195.686 68.144 196.752 68.3066 197.922C68.4367 198.859 69.1195 199.48 70.0461 199.709C72.2667 200.235 74.4303 200.352 76.8297 200.019C80.3409 199.531 82.8102 198.413 84.2715 196.48C85.5816 194.747 86.0172 192.3 85.5619 189.023L83.9439 177.378C83.7488 175.973 82.4157 174.965 81.0112 175.16C79.6067 175.355 78.5989 176.688 78.7859 178.034L78.7941 178.093C77.1782 176.767 75.377 175.824 72.568 176.214C68.413 176.791 64.9734 180.371 65.7214 185.755L65.7295 185.813C66.4776 191.197 70.7042 193.712 74.9177 193.127C77.6682 192.744 79.1523 191.405 80.4218 189.379L80.5437 190.257C80.999 193.534 79.5962 195.459 76.085 195.947ZM75.8538 188.702C73.3374 189.051 71.229 187.614 70.8794 185.098L70.8713 185.039C70.5298 182.582 72.1585 180.566 74.6749 180.216C77.1913 179.867 79.3583 181.295 79.7079 183.812L79.716 183.87C80.0071 186.395 78.3117 188.36 75.8538 188.702ZM89.0875 174.039C87.683 174.234 86.6752 175.567 86.8704 176.971L88.7323 190.373C88.9274 191.777 90.2604 192.785 91.6649 192.59C93.0694 192.395 94.0772 191.062 93.8821 189.657L93.2154 184.858C92.7113 181.23 93.8897 178.979 96.3834 178.036C97.4042 177.655 98.1682 176.714 97.9812 175.368C97.7779 173.905 96.6952 172.982 95.1152 173.201C93.5936 173.413 92.5924 175.222 92.134 177.075L92.0202 176.256C91.7665 174.859 90.492 173.843 89.0875 174.039ZM98.8008 185.991C98.248 182.012 101.039 179.775 105.311 179.181C107.125 178.929 108.512 179.035 109.806 179.332L109.765 179.04C109.464 176.874 108.014 175.883 105.439 176.241C103.976 176.444 102.897 176.832 101.943 177.263C101.894 177.28 101.847 177.297 101.801 177.313C101.58 177.392 101.392 177.459 101.198 177.486C100.028 177.649 98.9614 176.842 98.7987 175.672C98.6768 174.794 99.1482 173.893 99.9268 173.487C101.484 172.674 103.191 172.079 105.59 171.746C108.341 171.364 110.495 171.84 111.961 172.948C113.553 174.099 114.414 176.008 114.756 178.466L115.902 186.717C116.097 188.122 115.132 189.329 113.727 189.525C112.264 189.728 111.131 188.871 110.977 187.759L110.968 187.701C109.868 189.226 108.301 190.398 105.785 190.747C102.39 191.219 99.3049 189.619 98.809 186.05L98.8008 185.991ZM110.468 183.237L110.337 182.301C109.403 182.013 108.2 181.941 106.963 182.054C104.739 182.363 103.515 183.427 103.743 185.066L103.751 185.124C103.946 186.529 105.23 187.186 106.869 186.958C109.268 186.625 110.728 185.11 110.468 183.237ZM118.993 169.883C117.588 170.079 116.58 171.412 116.776 172.816L118.638 186.217C118.833 187.622 120.166 188.63 121.57 188.434C122.975 188.239 123.982 186.906 123.787 185.502L122.706 177.719C122.364 175.261 123.364 173.869 125.295 173.601C127.227 173.333 128.451 174.415 128.792 176.873L129.865 184.598C130.06 186.002 131.394 187.01 132.798 186.815C134.203 186.62 135.21 185.287 135.015 183.882L133.942 176.157C133.6 173.7 134.6 172.308 136.531 172.04C138.463 171.771 139.687 172.854 140.028 175.312L141.101 183.037C141.296 184.441 142.63 185.449 144.034 185.254C145.439 185.059 146.446 183.726 146.251 182.321L144.95 172.958C144.341 168.569 141.741 166.604 137.879 167.14C135.421 167.482 133.686 168.737 132.308 170.837C131.12 169.153 129.159 168.352 126.818 168.677C124.243 169.035 122.858 170.659 121.899 172.343L121.875 172.167C121.672 170.704 120.397 169.688 118.993 169.883ZM147.147 168.596C146.952 167.192 147.959 165.859 149.364 165.664C150.768 165.469 152.101 166.476 152.246 167.948L152.271 168.123C153.23 166.439 154.614 164.815 157.189 164.457C159.53 164.132 161.491 164.933 162.679 166.617C164.058 164.517 165.792 163.262 168.25 162.921C172.112 162.384 174.712 164.349 175.321 168.738L176.622 178.102C176.817 179.506 175.81 180.839 174.405 181.034C173.001 181.229 171.668 180.222 171.472 178.817L170.399 171.092C170.058 168.634 168.834 167.552 166.902 167.82C164.971 168.088 163.972 169.48 164.313 171.938L165.386 179.663C165.581 181.067 164.574 182.4 163.169 182.595C161.765 182.79 160.432 181.783 160.236 180.378L159.163 172.653C158.822 170.196 157.598 169.113 155.666 169.381C153.735 169.65 152.736 171.041 153.077 173.499L154.158 181.282C154.354 182.687 153.346 184.02 151.941 184.215C150.537 184.41 149.204 183.402 149.009 181.998L147.147 168.596ZM184.431 168.189C180.159 168.782 177.368 171.019 177.921 174.999L177.929 175.057C178.425 178.627 181.511 180.226 184.905 179.755C187.421 179.405 188.988 178.233 190.089 176.708L190.097 176.767C190.251 177.879 191.385 178.735 192.848 178.532C194.252 178.337 195.218 177.129 195.022 175.724L193.876 167.473C193.535 165.015 192.673 163.107 191.14 161.948C189.674 160.839 187.52 160.363 184.769 160.745C182.37 161.078 180.663 161.674 179.106 162.486C178.327 162.893 177.856 163.793 177.978 164.671C178.14 165.842 179.207 166.648 180.377 166.485C180.571 166.458 180.759 166.391 180.98 166.313C181.026 166.296 181.073 166.28 181.122 166.263C182.076 165.832 183.155 165.443 184.618 165.24C187.193 164.882 188.643 165.874 188.944 168.039L188.985 168.332C187.632 168.042 186.246 167.937 184.431 168.189ZM189.458 171.308L189.588 172.244C189.848 174.117 188.388 175.632 185.989 175.965C184.351 176.193 183.066 175.536 182.871 174.132L182.863 174.073C182.635 172.435 183.859 171.37 186.083 171.061C187.32 170.949 188.523 171.02 189.458 171.308ZM195.895 161.824C195.699 160.42 196.707 159.087 198.112 158.891C199.516 158.696 200.849 159.704 201.044 161.109L201.158 161.928C201.617 160.075 202.618 158.265 204.139 158.054C205.719 157.834 206.802 158.758 207.005 160.221C207.192 161.567 206.428 162.508 205.408 162.888C202.914 163.831 201.736 166.083 202.24 169.711L202.906 174.51C203.101 175.914 202.094 177.247 200.689 177.442C199.285 177.638 197.952 176.63 197.756 175.225L195.895 161.824ZM221.394 175.342C221.82 175.402 222.121 175.42 222.472 175.371C223.408 175.241 223.794 175.008 224.198 174.057L224.317 173.623L216.122 160.147C215.897 159.821 215.715 159.369 215.667 159.018C215.463 157.555 216.437 156.405 217.842 156.21C219.129 156.031 219.929 156.636 220.568 157.8L225.952 167.789L228.292 156.727C228.556 155.616 229.136 154.641 230.482 154.454C231.828 154.267 233.078 155.107 233.265 156.453C233.322 156.863 233.286 157.464 233.202 157.715L228.987 173.75C228.037 177.64 226.71 179.256 223.609 179.687C222.438 179.849 221.594 179.788 220.734 179.609C219.941 179.48 218.974 178.959 218.803 177.73C218.624 176.442 219.505 175.485 220.559 175.338C220.91 175.29 221.211 175.307 221.394 175.342Z" fill="white"/>
<path d="M145.552 140.047C161.065 137.891 171.894 123.568 169.739 108.054C167.583 92.5405 153.26 81.7115 137.746 83.8669C122.233 86.0222 111.404 100.346 113.559 115.86C115.714 131.373 130.038 142.202 145.552 140.047Z" fill="white"/>
<path fill-rule="evenodd" clip-rule="evenodd" d="M139.875 99.1989C144.381 98.5729 148.668 100.662 151.331 103.513C152.105 104.36 153.308 104.431 154.046 103.732C154.784 103.033 154.872 101.947 154.281 101.134C150.505 96.7081 144.448 94.3285 138.193 95.6747C130.073 97.3397 124.337 104.996 125.015 113.313C125.813 122.925 134.503 129.651 143.924 128.342C148.899 127.651 152.987 124.876 155.542 120.942L155.467 122.981L155.719 124.795C155.85 125.731 156.615 126.519 157.517 126.573C158.779 126.636 159.702 125.554 159.54 124.383L158.035 113.557L147.677 114.996C146.507 115.159 145.717 116.342 146.122 117.539C146.427 118.45 147.386 118.914 148.323 118.784L151.249 118.377L152.913 117.907C150.716 122.269 146.236 124.8 140.972 124.696C136.669 124.638 132.643 122.274 130.568 118.506C125.855 109.915 131.273 100.394 139.875 99.1989Z" fill="#03C197"/>
</svg>
