<svg width="2619" height="2619" viewBox="0 0 2619 2619" fill="none" xmlns="http://www.w3.org/2000/svg">
<path d="M1602.88 457.929C1621.82 416.846 1632.38 371.105 1632.38 322.901C1632.38 144.569 1487.82 0 1309.49 0C1131.16 0 986.607 144.569 986.607 322.887C986.607 371.091 997.168 416.832 1016.11 457.929C980.846 469.82 946.544 483.793 913.347 499.719C897.661 457.688 872.929 418.247 839.123 384.455C713.029 258.361 508.593 258.361 382.499 384.455C256.406 510.549 256.406 714.987 382.499 841.081C414.465 873.047 451.471 896.915 490.954 912.672C474.716 944.652 460.304 977.708 447.847 1011.7C409.411 995.546 367.182 986.627 322.886 986.627C144.568 986.627 0 1131.18 0 1309.51C0 1487.83 144.568 1632.4 322.886 1632.4C363.034 1632.4 401.483 1625.07 436.946 1611.68C448.356 1646.74 461.833 1680.89 477.208 1713.94C442.863 1729.55 410.685 1751.46 382.443 1779.7C256.349 1905.8 256.349 2110.23 382.443 2236.33C508.536 2362.42 712.973 2362.42 839.066 2236.33C865.2 2210.21 885.911 2180.71 901.214 2149.25C934.242 2165.69 968.402 2180.2 1003.54 2192.61C992.553 2225.1 986.593 2259.91 986.593 2296.11C986.607 2474.45 1131.16 2619 1309.49 2619C1487.82 2619 1632.38 2474.43 1632.38 2296.11C1632.38 2259.91 1626.42 2225.12 1615.45 2192.63C1649.95 2180.42 1683.5 2166.21 1715.97 2150.14C1731.23 2181.29 1751.8 2210.49 1777.71 2236.4C1903.8 2362.49 2108.24 2362.49 2234.33 2236.4C2360.43 2110.31 2360.43 1905.87 2234.33 1779.77C2206.59 1752.01 2175.03 1730.38 2141.37 1714.84C2156.93 1681.5 2170.53 1647.07 2182.04 1611.69C2217.52 1625.08 2255.95 1632.4 2296.11 1632.4C2474.43 1632.4 2619 1487.85 2619 1309.51C2619 1131.18 2474.43 986.627 2296.1 986.627C2251.8 986.627 2209.59 995.546 2171.15 1011.7C2158.6 977.467 2144.07 944.199 2127.71 912.021C2166.52 896.264 2202.91 872.637 2234.39 841.138C2360.5 715.044 2360.5 510.606 2234.41 384.512C2108.31 258.417 1903.86 258.417 1777.77 384.512C1744.22 418.063 1719.58 457.178 1703.9 498.87C1671.24 483.297 1637.52 469.608 1602.88 457.929Z" fill="#FEF151"/>
</svg>
