<svg width="130" height="129" viewBox="0 0 130 129" fill="none" xmlns="http://www.w3.org/2000/svg">
	<path d="M129.434 27.1265L28.0002 0L0.775428 101.408L102.209 128.534L129.434 27.1265Z" fill="#191818" />
	<path d="M120.055 62.0681C119.132 65.4764 117.692 68.6064 115.855 71.3727C113.874 74.3458 111.44 76.9075 108.676 78.9415L51.3542 114.937L22.1596 59.1011C22.1469 59.076 22.1311 59.061 22.1182 59.0366L19.9889 54.9639C18.6159 51.7475 17.8023 48.2547 17.6221 44.6126C17.4523 41.3687 17.7843 38.0246 18.6887 34.6858C22.974 18.8583 38.3618 9.19613 52.989 13.147C63.7198 16.0459 71.1014 25.4728 72.5832 36.5371C79.4461 27.7276 90.5793 23.3007 101.309 26.1995C115.936 30.1511 124.341 46.2406 120.055 62.0681Z" fill="#FDACFF" />
</svg>
