<svg width="182" height="182" viewBox="0 0 182 182" fill="none" xmlns="http://www.w3.org/2000/svg">
<path d="M181.277 38.3083L38.3086 0L0.000334033 142.968L142.969 181.277L181.277 38.3083Z" fill="#191818"/>
<path d="M168.08 87.5671C166.781 92.3724 164.754 96.7847 162.167 100.684C159.377 104.875 155.948 108.486 152.053 111.352L71.2901 162.071L30.1128 83.3259C30.0948 83.2904 30.0725 83.2692 30.0544 83.2348L27.0511 77.4911C25.1142 72.9552 23.9655 68.0299 23.7094 62.8944C23.4682 58.3204 23.9341 53.6054 25.2067 48.8983C31.2367 26.5841 52.9172 12.9696 73.5338 18.5489C88.6585 22.6427 99.0671 35.939 101.162 51.5405C110.829 39.1232 126.516 32.8878 141.64 36.9815C162.256 42.5618 174.11 65.253 168.08 87.5671Z" fill="#FDACFF"/>
</svg>
