<?xml version="1.0" encoding="UTF-8"?> <svg xmlns="http://www.w3.org/2000/svg" xmlns:xlink="http://www.w3.org/1999/xlink" id="eim0qd7x05vk1" viewBox="0 0 130 400" shape-rendering="geometricPrecision" text-rendering="geometricPrecision"> <style><![CDATA[#eim0qd7x05vk2_to {animation: eim0qd7x05vk2_to__to 9200ms linear infinite normal forwards}@keyframes eim0qd7x05vk2_to__to { 0% {transform: translate(65px,361.595699px)} 28.260870% {transform: translate(65px,361.595699px);animation-timing-function: cubic-bezier(0.420000,0,1,1)} 36.956522% {transform: translate(60.938811px,256.959331px)} 44.565217% {transform: translate(65px,145.185686px);animation-timing-function: cubic-bezier(0,0,0.580000,1)} 53.260870% {transform: translate(65px,75px)} 100% {transform: translate(65px,75px)} }#eim0qd7x05vk2_ts {animation: eim0qd7x05vk2_ts__ts 9200ms linear infinite normal forwards}@keyframes eim0qd7x05vk2_ts__ts { 0% {transform: scale(0,0)} 28.260870% {transform: scale(0,0);animation-timing-function: cubic-bezier(0,0,0.580000,1)} 30.434783% {transform: scale(1.100000,1.100000);animation-timing-function: cubic-bezier(0,0,0.580000,1)} 32.608696% {transform: scale(0.900000,0.900000)} 50% {transform: scale(0.600000,0.600000)} 53.260870% {transform: scale(0,0)} 100% {transform: scale(0,0)} }]]></style> <g id="eim0qd7x05vk2_to" transform="translate(65,361.595699)"> <g id="eim0qd7x05vk2_ts" transform="scale(0,0)"> <g id="eim0qd7x05vk2" transform="translate(-38.407200,-38.313101)"> <path id="eim0qd7x05vk3" d="M76.480800,43.308900C79.239900,22.281500,64.430500,2.998630,43.403100,0.239505C22.375600,-2.519620,3.092730,12.289800,0.333609,33.317300C-2.425520,54.344700,12.383900,73.627600,33.411400,76.386700C54.438800,79.145800,73.721700,64.336400,76.480800,43.308900Z" fill="rgb(62,109,193)" stroke="none" stroke-width="1"></path> <path id="eim0qd7x05vk4" d="M26.300000,34.100100L19.700000,34.100100C18.500000,34.100100,17.500000,35.100100,17.500000,36.300100L17.500000,54.600100C17.500000,55.800100,18.500000,56.800100,19.700000,56.800100L26.300000,56.800100C27.500000,56.800100,28.500000,55.800100,28.500000,54.600100L28.500000,36.300100C28.500000,35.100100,27.500000,34.100100,26.300000,34.100100Z" fill="rgb(254,254,254)" stroke="none" stroke-width="1"></path> <path id="eim0qd7x05vk5" d="M56.100100,36.300100L55.700100,36.300100C57.600100,36.300100,59.200100,34.700100,59.200100,32.800100C59.200100,30.900100,57.600100,29.300100,55.700100,29.300100L44.400100,29.300100C45.800100,27.100100,47.700100,23.600100,47.700100,20.800100C47.700100,16.300100,45.200100,13.800100,43.600100,13.500100C42.000100,13.200100,40.800100,14.100100,40.300100,15.400100C39.800100,16.800100,40.700100,19.300100,40.300100,20.300100C39.800100,21.700100,37.300100,23.600100,34.000100,27.900100C31.000100,31.800100,31.400100,36.300100,31.400100,36.300100L31.400100,42.500100L31.400100,48.700100L31.400100,51.600100C31.400100,52.800100,32.400100,53.800100,33.600100,53.800100L54.500100,53.800100C55.900100,53.800100,57.000100,52.700100,57.000100,51.300100C57.000100,49.900100,55.900100,48.800100,54.500100,48.800100L54.900100,48.800100C56.600100,48.800100,58.000100,47.400100,58.000100,45.700100C58.000100,44.000100,56.600100,42.600100,54.900100,42.600100L56.000100,42.600100C57.700100,42.600100,59.100100,41.200100,59.100100,39.500100C59.200100,37.700100,57.800100,36.300100,56.100100,36.300100Z" fill="rgb(254,254,254)" stroke="none" stroke-width="1"></path> </g> </g> </g> </svg> 