<?xml version="1.0" encoding="UTF-8"?> <svg xmlns="http://www.w3.org/2000/svg" xmlns:xlink="http://www.w3.org/1999/xlink" id="eoruvwa3yby81" viewBox="0 0 130 400" shape-rendering="geometricPrecision" text-rendering="geometricPrecision"> <style><![CDATA[#eoruvwa3yby82_to {animation: eoruvwa3yby82_to__to 7000ms linear infinite normal forwards}@keyframes eoruvwa3yby82_to__to { 0% {transform: translate(65px,361.592731px);animation-timing-function: cubic-bezier(0.420000,0,1,1)} 11.428571% {transform: translate(70.821242px,247.350854px)} 21.428571% {transform: translate(59.906414px,153.483324px);animation-timing-function: cubic-bezier(0,0,0.580000,1)} 37.142857% {transform: translate(65px,52.339241px)} 100% {transform: translate(65px,52.339241px)} }#eoruvwa3yby82_ts {animation: eoruvwa3yby82_ts__ts 7000ms linear infinite normal forwards}@keyframes eoruvwa3yby82_ts__ts { 0% {transform: scale(0,0);animation-timing-function: cubic-bezier(0,0,0.580000,1)} 2.857143% {transform: scale(1.100000,1.100000);animation-timing-function: cubic-bezier(0,0,0.580000,1)} 5.714286% {transform: scale(0.900000,0.900000)} 34.285714% {transform: scale(0.600000,0.600000)} 37.142857% {transform: scale(0,0)} 100% {transform: scale(0,0)} }]]></style> <g id="eoruvwa3yby82_to" transform="translate(65,361.592731)"> <g id="eoruvwa3yby82_ts" transform="scale(0,0)"> <g id="eoruvwa3yby82" transform="translate(-46.618048,-38.329904)"> <path id="eoruvwa3yby83" d="M83.988900,47.154200C88.862500,26.514800,76.081700,5.832560,55.442400,0.959020C34.803000,-3.914520,14.120700,8.866210,9.247170,29.505600C4.373640,50.144900,17.154400,70.827200,37.793700,75.700800C58.433100,80.574300,79.115400,67.793600,83.988900,47.154200Z" fill="rgb(255,62,108)" stroke="none" stroke-width="1"></path> <path id="eoruvwa3yby84" d="M69,33.000100C69,25.500100,63.200000,20.100100,57.300000,20.100100C52.300000,20.100100,47.900000,23.400100,46.600000,28.000100C45.300000,23.400100,40.899900,20.100100,35.899900,20.100100C29.999900,20.100100,24.200000,25.500100,24.200000,33.000100C24.200000,44.400100,41.700000,57.500100,46,58.800100C46.100000,58.800100,46.200000,58.900100,46.300000,58.900100C46.400000,58.900100,46.600000,59.000100,46.700000,59.000100C46.800000,59.000100,46.900000,59.000100,47.100000,58.900100C47.200000,58.900100,47.299900,58.900100,47.399900,58.800100C51.499900,57.400100,69,44.400100,69,33.000100Z" fill="rgb(254,254,254)" stroke="none" stroke-width="1"></path> </g> </g> </g> </svg> 