<svg width="129" height="130" viewBox="0 0 129 130" fill="none" xmlns="http://www.w3.org/2000/svg">
	<path d="M101.434 0.873545L0.000244141 28L27.225 129.408L128.659 102.281L101.434 0.873545Z" fill="#FEF151" />
	<path d="M66.8408 29.129C67.1474 27.3421 67.0809 25.4616 66.5799 23.5951C64.726 16.69 57.6245 12.5895 50.7176 14.4366C43.8107 16.2837 39.7149 23.3787 41.5686 30.2833C42.0697 32.1498 42.9542 33.8115 44.115 35.2066C42.8728 36.0323 41.6895 36.9286 40.5693 37.8892C39.5249 36.4242 38.157 35.1532 36.4964 34.1949C30.3019 30.6185 22.384 32.736 18.8111 38.9245C15.2382 45.1129 17.3634 53.0289 23.5578 56.6052C25.1282 57.5119 26.8095 58.0528 28.5025 58.2539C28.2061 59.6604 27.9915 61.0896 27.8624 62.5348C26.2058 62.3074 24.4776 62.3995 22.7619 62.8583C15.8556 64.7053 11.759 71.7999 13.6129 78.705C15.4665 85.6096 22.5686 89.71 29.4749 87.863C31.0299 87.4472 32.4428 86.765 33.6771 85.8791C34.4836 87.1187 35.3605 88.3013 36.2996 89.422C35.1316 90.3818 34.1131 91.5636 33.3128 92.9497C29.7399 99.1382 31.8651 107.054 38.0596 110.63C44.254 114.207 52.172 112.089 55.7449 105.901C56.4856 104.619 56.981 103.262 57.2467 101.885C58.6968 102.18 60.1707 102.388 61.6606 102.505C61.5729 103.876 61.7039 105.286 62.0802 106.688C63.9346 113.593 71.0359 117.693 77.9428 115.846C84.8497 113.998 88.9456 106.903 87.0919 99.9988C86.7156 98.5972 86.123 97.3116 85.3604 96.1672C86.5697 95.3373 87.7214 94.4395 88.8122 93.4809C89.727 94.5288 90.8273 95.4466 92.1 96.1814C98.2944 99.7578 106.212 97.6403 109.785 91.4518C113.358 85.2633 111.233 77.3474 105.039 73.771C103.675 72.9835 102.228 72.4727 100.763 72.2195C101.019 70.7675 101.188 69.2935 101.266 67.8044C102.779 67.9555 104.344 67.8408 105.899 67.4248C112.806 65.5778 116.902 58.4832 115.048 51.5781C113.195 44.6729 106.093 40.5731 99.1858 42.4202C97.4702 42.879 95.9279 43.6616 94.6072 44.6852C93.765 43.4898 92.8566 42.3521 91.8883 41.2756C93.2279 40.2635 94.3914 38.9718 95.2834 37.426C98.8569 31.2374 96.7317 23.3214 90.5372 19.7451C84.3427 16.1687 76.4242 18.2863 72.8513 24.4748C71.9006 26.1215 71.3532 27.8911 71.1791 29.6679C69.7523 29.4032 68.3039 29.2225 66.8408 29.129Z" fill="#2971F6" />
</svg>
