<svg width="148" height="148" viewBox="0 0 148 148" fill="none" xmlns="http://www.w3.org/2000/svg">
<path d="M147.998 0L0 0L0 147.998H147.998V0Z" fill="#FEF151"/>
<path d="M90.5789 25.8776C91.6493 23.556 92.2461 20.9712 92.2461 18.2472C92.2461 8.16959 84.0773 0 73.9998 0C63.9222 0 55.7534 8.16959 55.7534 18.2464C55.7534 20.9704 56.3502 23.5552 57.4206 25.8776C55.4278 26.5496 53.4894 27.3392 51.6134 28.2392C50.727 25.864 49.3294 23.6352 47.419 21.7256C40.2935 14.6 28.7407 14.6 21.6151 21.7256C14.4896 28.8512 14.4896 40.404 21.6151 47.5296C23.4215 49.336 25.5127 50.6848 27.7439 51.5752C26.8263 53.3824 26.0119 55.2504 25.3079 57.1712C23.1359 56.2584 20.7495 55.7544 18.2463 55.7544C8.16957 55.7544 0 63.9232 0 74.0007C0 84.0775 8.16957 92.2471 18.2463 92.2471C20.5151 92.2471 22.6879 91.8327 24.6919 91.0759C25.3367 93.0575 26.0983 94.9871 26.9671 96.8551C25.0263 97.7367 23.2079 98.9751 21.6119 100.571C14.4864 107.697 14.4864 119.25 21.6119 126.375C28.7375 133.501 40.2903 133.501 47.4158 126.375C48.8926 124.899 50.063 123.232 50.9278 121.454C52.7942 122.383 54.7246 123.203 56.7102 123.905C56.0894 125.741 55.7526 127.708 55.7526 129.754C55.7534 139.831 63.9222 148 73.9998 148C84.0773 148 92.2461 139.83 92.2461 129.754C92.2461 127.708 91.9093 125.742 91.2893 123.906C93.2389 123.216 95.1349 122.413 96.9701 121.505C97.8325 123.265 98.9949 124.915 100.459 126.379C107.584 133.505 119.137 133.505 126.263 126.379C133.388 119.254 133.388 107.701 126.263 100.575C124.695 99.0063 122.912 97.7839 121.009 96.9055C121.888 95.0215 122.657 93.0759 123.308 91.0767C125.312 91.8335 127.484 92.2471 129.754 92.2471C139.831 92.2471 148 84.0783 148 74.0007C148 63.9232 139.831 55.7544 129.753 55.7544C127.25 55.7544 124.864 56.2584 122.692 57.1712C121.983 55.2368 121.162 53.3568 120.237 51.5384C122.431 50.648 124.487 49.3128 126.266 47.5328C133.392 40.4072 133.392 28.8544 126.267 21.7288C119.141 14.6032 107.588 14.6032 100.462 21.7288C98.5661 23.6248 97.1741 25.8352 96.2877 28.1912C94.4421 27.3112 92.5365 26.5376 90.5789 25.8776Z" fill="#2971F6"/>
</svg>
