<?xml version="1.0" encoding="UTF-8"?> <svg xmlns="http://www.w3.org/2000/svg" xmlns:xlink="http://www.w3.org/1999/xlink" id="ehluozzsip0l1" viewBox="0 0 130 400" shape-rendering="geometricPrecision" text-rendering="geometricPrecision"> <style><![CDATA[#ehluozzsip0l2_to {animation: ehluozzsip0l2_to__to 8500ms linear infinite normal forwards}@keyframes ehluozzsip0l2_to__to { 0% {transform: translate(65px,357.759973px)} 69.411765% {transform: translate(65px,357.759973px);animation-timing-function: cubic-bezier(0.420000,0,1,1)} 80% {transform: translate(70.138611px,276.479899px)} 89.411765% {transform: translate(65px,184.281107px);animation-timing-function: cubic-bezier(0,0,0.580000,1)} 98.823529% {transform: translate(57.320000px,115.869120px)} 100% {transform: translate(57.320000px,115.869120px)} }#ehluozzsip0l2_ts {animation: ehluozzsip0l2_ts__ts 8500ms linear infinite normal forwards}@keyframes ehluozzsip0l2_ts__ts { 0% {transform: scale(0,0)} 69.411765% {transform: scale(0,0);animation-timing-function: cubic-bezier(0,0,0.580000,1)} 71.764706% {transform: scale(1.100000,1.100000);animation-timing-function: cubic-bezier(0,0,0.580000,1)} 74.117647% {transform: scale(0.900000,0.900000)} 94.117647% {transform: scale(0.600000,0.600000)} 98.823529% {transform: scale(0,0)} 100% {transform: scale(0,0)} }]]></style> <g id="ehluozzsip0l2_to" transform="translate(65,357.759973)"> <g id="ehluozzsip0l2_ts" transform="scale(0,0)"> <g id="ehluozzsip0l2" transform="translate(-38.400002,-38.599975)"> <path id="ehluozzsip0l3" d="M38.400000,77C59.607700,77,76.800000,59.807700,76.800000,38.600000C76.800000,17.392200,59.607700,0.199951,38.400000,0.199951C17.192300,0.199951,0,17.392200,0,38.600000C0,59.807700,17.192300,77,38.400000,77Z" fill="rgb(255,222,117)" stroke="none" stroke-width="1"></path> <path id="ehluozzsip0l4" d="M38.400000,69.600000C44.475200,69.600000,49.400000,62.794700,49.400000,54.399900C49.400000,46.005200,44.475200,39.200000,38.400000,39.200000C32.324900,39.200000,27.400000,46.005200,27.400000,54.399900C27.400000,62.794700,32.324900,69.600000,38.400000,69.600000Z" fill="rgb(29,39,56)" stroke="none" stroke-width="1"></path> <path id="ehluozzsip0l5" d="M56.803200,37.491900C59.889800,37.294000,62.168500,33.648300,61.892800,29.349100C61.617200,25.049900,58.891500,21.725200,55.804900,21.923100C52.718300,22.121000,50.439600,25.766700,50.715200,30.065900C50.990900,34.365100,53.716600,37.689800,56.803200,37.491900Z" fill="rgb(29,39,56)" stroke="none" stroke-width="1"></path> <path id="ehluozzsip0l6" d="M26.111600,30.035900C26.387300,25.736700,24.108600,22.091000,21.022000,21.893100C17.935300,21.695200,15.209700,25.019900,14.934000,29.319100C14.658300,33.618300,16.937000,37.264000,20.023600,37.461900C23.110200,37.659800,25.835900,34.335100,26.111600,30.035900Z" fill="rgb(29,39,56)" stroke="none" stroke-width="1"></path> <path id="ehluozzsip0l7" d="M15.600000,15.999900C15.200000,15.999900,14.800000,15.899900,14.500000,15.599900C13.800000,14.999900,13.700000,13.899900,14.300000,13.199900C14.600000,12.899900,17,10.199900,20.300000,9.799910C23.600000,9.499910,26.400000,11.399900,26.600000,11.499900C27.400000,11.999900,27.500000,13.099900,27,13.799900C26.500000,14.599900,25.400000,14.699900,24.700000,14.199900C24.700000,14.199900,22.800000,12.899900,20.700000,13.099900C19,13.299900,17.400000,14.799900,16.900000,15.299900C16.500000,15.799900,16,15.999900,15.600000,15.999900Z" fill="rgb(29,39,56)" stroke="none" stroke-width="1"></path> <path id="ehluozzsip0l8" d="M61.100000,15.999900C61.500000,15.999900,61.900000,15.899900,62.200000,15.599900C62.900000,14.999900,63,13.899900,62.400000,13.199900C62.100000,12.899900,59.700000,10.199900,56.400000,9.799910C53.100000,9.499910,50.300000,11.399900,50.100000,11.499900C49.300000,11.999900,49.200000,13.099900,49.700000,13.799900C50.200000,14.599900,51.300000,14.699900,52,14.199900C52,14.199900,53.900000,12.899900,56,13.099900C57.700000,13.299900,59.300000,14.799900,59.800000,15.299900C60.200000,15.799900,60.700000,15.999900,61.100000,15.999900Z" fill="rgb(29,39,56)" stroke="none" stroke-width="1"></path> </g> </g> </g> </svg> 