<svg width="312" height="229" viewBox="0 0 312 229" fill="none" xmlns="http://www.w3.org/2000/svg">
<path d="M141.091 199.001C46.5109 217.837 -47.9295 148.362 -47.9295 148.362C-47.9295 148.362 12.534 48.0295 107.114 29.1934C201.693 10.3572 296.27 79.64 296.27 79.64C296.27 79.64 235.67 180.165 141.091 199.001Z" fill="#F6824C"/>
<g clip-path="url(#clip0)">
<path fill-rule="evenodd" clip-rule="evenodd" d="M136.747 100.501C131.45 101.71 129.121 106.672 130.668 113.453C132.215 120.233 136.466 123.694 141.762 122.486C143.752 122.032 145.472 121.045 146.735 119.632L146.797 119.564L145.059 111.946L137.438 113.685L136.821 110.98L147.559 108.53L150.149 119.882C148.378 122.6 145.693 124.435 142.379 125.191C135.27 126.813 129.449 122.484 127.551 114.164C125.652 105.843 129.02 99.4187 136.13 97.7966C139.591 97.0069 142.801 97.6052 145.428 99.5262L143.745 101.728C141.771 100.305 139.417 99.8921 136.747 100.501ZM202.242 111.077L199.835 111.626L198.516 109.575L198.364 109.791C198.343 109.821 196.202 112.82 192.821 113.591C189.409 114.37 186.414 112.662 185.699 109.531C184.665 104.998 188.357 103.155 191.636 102.407C194.19 101.824 196.61 101.878 196.634 101.879L196.862 101.884L196.737 101.334C196.174 98.8673 194.35 97.9672 191.314 98.6598C189.475 99.0793 187.636 99.9772 185.985 101.259L184.246 99.3896C185.634 97.9559 187.831 96.1712 190.602 95.539C195.42 94.4398 198.894 96.4037 199.895 100.792L202.242 111.077ZM193.735 104.455C190.058 105.294 188.357 106.803 188.817 108.82C189.138 110.228 190.4 110.86 192.109 110.47C194.926 109.828 197.134 108.108 197.995 107.193L198.06 107.125L197.334 103.941L197.184 103.95C197.168 103.95 195.533 104.045 193.735 104.455ZM184.503 112.279L185.12 114.983L174.729 117.354L168.875 91.694L171.992 90.9827L177.229 113.938L184.503 112.279ZM213.099 109.056C211.075 109.518 208.791 109.746 206.312 109.732L200.547 84.4678L203.665 83.7566L205.885 93.4877L206.113 93.2525C206.128 93.2375 207.613 91.7284 210.01 91.1816C210.488 91.0725 210.976 91.0081 211.458 90.99C215.572 90.8993 218.643 93.5382 219.672 98.0492C220.886 103.37 218.183 107.896 213.099 109.056ZM210.114 94.3707C208.874 94.6536 207.674 95.3742 206.644 96.4542L206.578 96.5236L208.938 106.869L209.091 106.857C210.301 106.761 211.442 106.593 212.483 106.355C215.731 105.614 217.405 102.491 216.554 98.7605C215.747 95.2212 213.399 93.6212 210.114 94.3707ZM166.692 101.312L167.309 104.017L162.113 105.202L163.925 113.143C164.147 114.116 164.734 114.944 165.578 115.474C166.421 116.006 167.421 116.176 168.393 115.954L169.952 115.599L170.569 118.303L169.01 118.659C165.285 119.509 161.563 117.167 160.712 113.438L156.401 94.5398L159.518 93.8286L161.496 102.498L166.692 101.312ZM149.518 97.934L152.636 97.2228L153.348 100.344L150.23 101.055L149.518 97.934ZM151.101 104.869L154.218 104.158L158.095 121.149L154.977 121.86L151.101 104.869Z" fill="white"/>
<path fill-rule="evenodd" clip-rule="evenodd" d="M73.5551 161.744L77.5323 117.453L50.7617 123.561L73.5551 161.744Z" fill="white" fill-opacity="0.8"/>
<path fill-rule="evenodd" clip-rule="evenodd" d="M73.5565 161.743L50.7631 123.56L32.0039 127.84L73.5565 161.743Z" fill="white" fill-opacity="0.9"/>
<path fill-rule="evenodd" clip-rule="evenodd" d="M32.0042 127.84L30.7957 141.299C30.6854 142.527 31.3774 143.686 32.5099 144.171L73.5567 161.743L32.0042 127.84Z" fill="white"/>
<path fill-rule="evenodd" clip-rule="evenodd" d="M32.0023 127.84L50.7614 123.56L37.033 100.563C36.3267 99.3793 34.5206 99.7917 34.3975 101.164L32.0023 127.84Z" fill="white" fill-opacity="0.8"/>
<path fill-rule="evenodd" clip-rule="evenodd" d="M73.5566 161.743L77.5337 117.452L96.2929 113.172L73.5566 161.743Z" fill="white" fill-opacity="0.9"/>
<path fill-rule="evenodd" clip-rule="evenodd" d="M96.2929 113.173L103.219 124.777C103.851 125.835 103.731 127.18 102.92 128.108L73.5566 161.744L96.2929 113.173Z" fill="white"/>
<path fill-rule="evenodd" clip-rule="evenodd" d="M96.2927 113.173L77.5335 117.452L79.9291 90.7764C80.0522 89.4036 81.8584 88.9919 82.5646 90.1751L96.2927 113.173Z" fill="white" fill-opacity="0.8"/>
</g>
<defs>
<clipPath id="clip0">
<rect width="194" height="69" fill="white" transform="translate(21.8398 102.895) rotate(-12.8519)"/>
</clipPath>
</defs>
</svg>
