<svg width="295" height="303" viewBox="0 0 295 303" fill="none" xmlns="http://www.w3.org/2000/svg">
<path d="M241.092 96.717C270.518 147.923 252.33 213.821 200.468 243.904C148.605 273.986 82.7075 256.862 53.2811 205.656C23.8548 154.45 42.0429 88.5526 93.9054 58.4698C145.768 28.387 211.666 45.5109 241.092 96.717Z" fill="#2971F6"/>
<path d="M115.659 166.631C115.392 165.631 115.312 164.656 115.42 163.708C115.528 162.76 115.799 161.861 116.233 161.012C116.659 160.149 117.239 159.351 117.97 158.619C118.717 157.878 119.587 157.22 120.582 156.643C121.62 156.042 122.627 155.621 123.604 155.382C124.573 155.129 125.474 155.059 126.308 155.172C127.157 155.277 127.915 155.56 128.583 156.02C129.257 156.457 129.815 157.059 130.255 157.824C130.595 158.416 130.805 159.065 130.884 159.77C130.977 160.467 130.908 161.249 130.676 162.115C130.444 162.981 130.028 163.963 129.43 165.061C128.837 166.136 128.034 167.363 127.019 168.74L125.911 170.221L134.667 165.145L136.324 168.026L121.925 176.373L120.579 174.033L124.645 167.719C125.921 165.728 126.802 164.101 127.286 162.838C127.777 161.552 127.802 160.526 127.362 159.761C126.872 158.909 126.168 158.47 125.249 158.444C124.345 158.409 123.353 158.705 122.272 159.332C120.975 160.084 120.037 160.993 119.459 162.06C118.881 163.127 118.745 164.293 119.051 165.56L115.659 166.631ZM133.44 159.588C132.725 158.346 132.285 157.129 132.117 155.936C131.95 154.742 132.029 153.609 132.353 152.535C132.691 151.453 133.258 150.45 134.054 149.527C134.849 148.604 135.852 147.792 137.062 147.09C138.273 146.388 139.476 145.922 140.669 145.693C141.863 145.463 143.004 145.475 144.093 145.73C145.195 145.977 146.219 146.471 147.165 147.213C148.111 147.955 148.941 148.947 149.655 150.189C150.369 151.431 150.81 152.649 150.977 153.842C151.144 155.035 151.059 156.173 150.72 157.255C150.396 158.329 149.836 159.327 149.041 160.25C148.246 161.173 147.243 161.986 146.032 162.688C144.821 163.39 143.619 163.855 142.425 164.085C141.231 164.315 140.083 164.307 138.98 164.06C137.892 163.805 136.875 163.307 135.929 162.565C134.984 161.823 134.154 160.831 133.44 159.588ZM146.585 151.969C146.111 151.146 145.566 150.499 144.95 150.028C144.339 149.535 143.69 149.208 143.003 149.048C142.321 148.866 141.608 148.846 140.864 148.988C140.119 149.131 139.38 149.415 138.645 149.841C137.91 150.267 137.294 150.768 136.799 151.344C136.304 151.92 135.958 152.554 135.76 153.247C135.568 153.916 135.526 154.644 135.632 155.429C135.744 156.193 136.036 156.986 136.51 157.809C136.983 158.632 137.525 159.29 138.136 159.784C138.752 160.254 139.401 160.581 140.083 160.764C140.77 160.924 141.486 160.932 142.231 160.79C142.975 160.647 143.715 160.363 144.45 159.936C145.185 159.51 145.8 159.009 146.295 158.434C146.791 157.858 147.134 157.235 147.326 156.565C147.523 155.873 147.566 155.146 147.454 154.382C147.348 153.597 147.058 152.792 146.585 151.969ZM153.092 143.027C152.826 143.701 152.365 144.353 151.71 144.983C151.054 145.614 150.279 146.188 149.385 146.706L148.027 144.345C149.022 143.768 149.772 143.035 150.279 142.144C150.791 141.231 151.105 140.24 151.221 139.172L153.989 137.568L162.709 152.732L159.726 154.461L153.092 143.027ZM160.028 140.566C159.563 139.757 159.335 138.927 159.344 138.074C159.354 137.221 159.58 136.378 160.022 135.543C160.465 134.709 161.1 133.908 161.926 133.14C162.759 132.349 163.759 131.615 164.927 130.939C166.08 130.27 167.234 129.804 168.388 129.539C169.534 129.259 170.642 129.214 171.712 129.403C172.773 129.577 173.771 130.01 174.706 130.7C175.647 131.368 176.479 132.33 177.202 133.586C177.933 134.857 178.398 136.118 178.599 137.369C178.799 138.62 178.747 139.816 178.442 140.955C178.128 142.081 177.571 143.135 176.772 144.118C175.965 145.087 174.934 145.935 173.68 146.662C171.979 147.647 170.31 148.22 168.672 148.38C167.041 148.517 165.558 148.211 164.225 147.463L166.186 144.507C167.025 144.964 167.981 145.122 169.053 144.982C170.117 144.827 171.168 144.449 172.206 143.848C173.575 143.054 174.52 142.073 175.04 140.905C175.552 139.723 175.576 138.428 175.113 137.021L174.941 136.572C174.591 137.468 174.024 138.336 173.239 139.176C172.46 139.994 171.465 140.753 170.254 141.455C169.173 142.082 168.112 142.543 167.071 142.838C166.044 143.125 165.09 143.236 164.206 143.17C163.323 143.104 162.518 142.858 161.792 142.432C161.081 141.997 160.493 141.375 160.028 140.566ZM172.299 133.482C172.075 133.092 171.764 132.819 171.368 132.664C170.971 132.509 170.505 132.452 169.971 132.492C169.451 132.523 168.881 132.652 168.261 132.876C167.641 133.101 166.999 133.406 166.336 133.79C165.673 134.174 165.089 134.58 164.585 135.007C164.081 135.434 163.679 135.87 163.377 136.314C163.09 136.75 162.914 137.179 162.849 137.602C162.785 138.025 162.865 138.431 163.089 138.821C163.313 139.211 163.623 139.483 164.02 139.638C164.417 139.794 164.875 139.855 165.395 139.824C165.929 139.783 166.507 139.651 167.127 139.426C167.747 139.202 168.389 138.897 169.052 138.513C169.715 138.128 170.298 137.723 170.802 137.296C171.306 136.869 171.702 136.437 171.989 136.001C172.291 135.557 172.474 135.123 172.539 134.701C172.603 134.278 172.523 133.872 172.299 133.482Z" fill="white"/>
</svg>
