
<svg version="1.0" xmlns="http://www.w3.org/2000/svg"
 width="1920.000000pt" height="1080.000000pt" viewBox="0 0 1920.000000 1080.000000"
 preserveAspectRatio="xMidYMid meet">

<g transform="translate(0.000000,1080.000000) scale(0.100000,-0.100000)"
fill="#000000" stroke="none">
<path d="M0 5400 l0 -5400 9600 0 9600 0 0 5400 0 5400 -9600 0 -9600 0 0
-5400z m9920 1235 l0 -275 325 0 325 0 0 -320 0 -320 320 0 320 0 0 -320 0
-320 -320 0 -320 0 0 -325 0 -325 -325 0 -325 0 0 -270 0 -270 -320 0 -320 0
0 270 0 270 -325 0 -325 0 0 325 0 325 -320 0 -320 0 0 320 0 320 320 0 320 0
0 320 0 320 325 0 325 0 0 275 0 275 320 0 320 0 0 -275z"/>
</g>
</svg>
