<svg width="25" height="25" viewBox="0 0 25 25" fill="none" xmlns="http://www.w3.org/2000/svg">
	<g clip-path="url(#clip0)">
		<path d="M24.5 5.0585C23.6075 5.45 22.6565 5.7095 21.665 5.8355C22.685 5.2265 23.4635 4.2695 23.8295 3.116C22.8785 3.683 21.8285 4.0835 20.7095 4.307C19.8065 3.3455 18.5195 2.75 17.1155 2.75C14.3915 2.75 12.1985 4.961 12.1985 7.6715C12.1985 8.0615 12.2315 8.4365 12.3125 8.7935C8.222 8.594 4.6025 6.6335 2.171 3.647C1.7465 4.3835 1.4975 5.2265 1.4975 6.134C1.4975 7.838 2.375 9.3485 3.683 10.223C2.8925 10.208 2.117 9.9785 1.46 9.617C1.46 9.632 1.46 9.6515 1.46 9.671C1.46 12.062 3.1655 14.048 5.402 14.5055C5.0015 14.615 4.565 14.6675 4.112 14.6675C3.797 14.6675 3.479 14.6495 3.1805 14.5835C3.818 16.532 5.627 17.9645 7.778 18.011C6.104 19.3205 3.9785 20.1095 1.6775 20.1095C1.274 20.1095 0.887 20.0915 0.5 20.042C2.6795 21.4475 5.2625 22.25 8.048 22.25C17.102 22.25 22.052 14.75 22.052 8.249C22.052 8.0315 22.0445 7.8215 22.034 7.613C23.0105 6.92 23.831 6.0545 24.5 5.0585Z" fill="white" />
	</g>
	<defs>
		<clipPath id="clip0">
			<rect width="24" height="24" fill="white" transform="translate(0.5 0.5)" />
		</clipPath>
	</defs>
</svg>
