<svg width="595" height="842" xmlns="http://www.w3.org/2000/svg" xml:space="preserve" version="1.1">

 <g>
  <title>Layer 1</title>
  <g id="svg_1">
   <path id="svg_2" d="m274.32707,165.76327l-9.73984,128.50209l-37.25063,2.0107l0,-127.95372l46.99048,-2.55907z"/>
   <path id="svg_3" d="m380.44011,248.56761c0,8.59118 -1.367,16.08561 -4.27186,22.66609c-2.73399,6.39769 -6.6641,11.88142 -11.44859,16.08561c-4.78449,4.20419 -10.59422,7.49443 -17.08745,9.68792s-13.49908,3.29024 -21.01756,3.29024c-2.90487,0 -5.98061,-0.36558 -9.56897,-1.27954c-3.41749,-0.73116 -7.00585,-1.82791 -10.42334,-3.10745c-3.58836,-1.27954 -7.00585,-2.55907 -10.25247,-4.0214c-3.24661,-1.46233 -6.15148,-2.74187 -8.7146,-4.0214l3.93011,-38.93449c4.95536,3.29024 10.59422,5.66652 16.57482,7.31164c6.15148,1.64512 12.13209,2.55907 17.94182,2.55907c1.19612,0 2.39224,0 4.10099,-0.18279c1.53787,-0.18279 3.07574,-0.36558 4.61361,-0.91396c1.367,-0.54837 2.73399,-1.09675 3.58836,-2.19349c1.02525,-0.91396 1.53787,-2.37628 1.53787,-4.0214c0,-1.27954 -0.34175,-2.19349 -1.02525,-3.10745c-0.6835,-0.91396 -1.53787,-1.46233 -2.73399,-2.0107c-1.19612,-0.54837 -2.39224,-0.91396 -3.75924,-1.27954c-1.367,-0.36558 -2.73399,-0.54837 -4.10099,-0.54837c-1.367,-0.18279 -2.56312,-0.18279 -3.75924,-0.18279c-1.19612,0 -2.05049,0 -2.90487,0c-5.12623,0 -9.73984,-0.91396 -13.84083,-2.74187s-7.68935,-4.56978 -10.59422,-7.86001c-2.90487,-3.29024 -5.29711,-7.31164 -7.00585,-12.06421c-1.70874,-4.56978 -2.39224,-9.68792 -2.39224,-14.98886c0,-7.49443 1.367,-14.07491 4.27186,-19.92422c2.73399,-5.84931 6.49323,-10.96746 11.27771,-14.98886c4.61361,-4.20419 10.08159,-7.31164 16.0622,-9.50513c5.98061,-2.19349 12.30296,-3.29024 18.79619,-3.29024c2.90487,0 5.80973,0.18279 8.88547,0.36558c3.07574,0.18279 6.15148,0.54837 9.05635,1.09675c3.07574,0.54837 5.98061,1.27954 8.88547,2.19349c2.90487,0.91396 5.63886,2.0107 8.20197,3.29024l-3.41749,38.38612c-3.93011,-1.46233 -8.20197,-2.74187 -12.64471,-3.65582c-4.44274,-0.91396 -8.7146,-1.46233 -12.81558,-1.46233c-0.6835,0 -1.70874,0 -2.90487,0c-1.19612,0 -2.39224,0.18279 -3.75924,0.36558c-1.367,0.18279 -2.73399,0.36558 -3.93011,0.73116c-1.367,0.36558 -2.56312,0.73116 -3.58836,1.27954c-1.02525,0.54837 -1.87962,1.27954 -2.56312,2.19349c-0.6835,0.91396 -1.02525,2.0107 -0.85437,3.10745c0,1.46233 0.51262,2.55907 1.53787,3.29024c0.85437,0.91396 2.05049,1.46233 3.58836,2.0107c1.367,0.54837 3.07574,0.73116 4.78449,0.91396c1.70874,0.18279 3.41749,0.36558 5.12623,0.36558c1.70874,0 3.24661,0 4.78449,0c1.53787,0 2.73399,0 3.58836,0.18279c4.78449,0.36558 8.88547,1.46233 12.64471,3.29024c3.75924,1.82791 7.00585,4.20419 9.56897,7.31164c2.56312,3.10745 4.61361,6.58048 5.98061,10.78467c1.367,3.83861 2.05049,8.40839 2.05049,13.52654z"/>
   <path id="svg_4" d="m191.79471,322.0496l-1.02525,46.06334l-30.24478,1.27954l-7.68935,103.09414l-42.88949,2.37628l0.17087,-103.09414l-30.24478,1.82791l1.19612,-51.36428l110.72665,-0.18279z"/>
   <path id="svg_5" d="m329.0069,477.42198l-50.74972,2.55907l-0.34175,-50.26753l-23.4098,0l-1.367,47.52567l-45.62348,0l3.93011,-152.8133l48.1866,2.55907l-3.07574,78.05177l22.55543,0l0.17087,-83.90108l46.30698,1.27954l3.41749,155.00679z"/>
   <path id="svg_6" d="m404.53341,324.42588l-11.10684,148.06073l-42.88949,2.37628l0,-147.51236l53.99633,-2.92466z"/>
   <path id="svg_7" d="m523.12029,413.99349c0,9.68792 -1.53787,18.09631 -4.61361,25.22516s-7.3476,13.16095 -12.81558,17.91352c-5.46798,4.75257 -11.79034,8.40839 -18.96707,10.78467c-7.17673,2.37628 -15.03695,3.65582 -23.4098,3.65582c-3.24661,0 -6.6641,-0.36558 -10.59422,-1.27954c-3.75924,-0.91396 -7.68935,-2.0107 -11.61946,-3.47303c-3.93011,-1.46233 -7.68935,-2.92466 -11.44859,-4.38698c-3.58836,-1.64512 -6.83498,-3.10745 -9.73984,-4.38698l4.27186,-43.32147c5.63886,3.65582 11.79034,6.2149 18.62532,8.2256c6.83498,1.82791 13.49908,2.74187 19.99231,2.74187c1.19612,0 2.73399,0 4.61361,-0.18279s3.41749,-0.36558 5.12623,-0.91396c1.53787,-0.54837 2.90487,-1.27954 4.10099,-2.37628c1.19612,-1.09675 1.70874,-2.55907 1.70874,-4.56978c0,-1.27954 -0.34175,-2.55907 -1.19612,-3.47303s-1.87962,-1.64512 -3.07574,-2.37628c-1.19612,-0.54837 -2.73399,-1.09675 -4.27186,-1.27954s-3.07574,-0.54837 -4.61361,-0.73116c-1.53787,-0.18279 -2.90487,-0.18279 -4.27186,-0.18279c-1.367,0 -2.39224,0 -3.07574,0c-5.63886,0 -10.76509,-1.09675 -15.3787,-3.10745c-4.61361,-2.19349 -8.54372,-5.11815 -11.96121,-8.77397c-3.24661,-3.83861 -5.80973,-8.2256 -7.68935,-13.34375c-1.87962,-5.11815 -2.73399,-10.78467 -2.73399,-16.81677c0,-8.2256 1.53787,-15.72003 4.61361,-22.30051c3.07574,-6.58048 7.3476,-12.06421 12.47384,-16.81677c5.29711,-4.56978 11.27771,-8.04281 17.94182,-10.60188c6.83498,-2.37628 13.66996,-3.65582 21.01756,-3.65582c3.24661,0 6.49323,0.18279 9.91072,0.36558c3.41749,0.18279 6.83498,0.73116 10.25247,1.27954s6.6641,1.46233 9.91072,2.37628c3.24661,0.91396 6.32236,2.19349 9.22722,3.65582l-3.75924,42.7731c-4.44274,-1.64512 -9.05635,-2.92466 -14.01171,-4.0214c-4.95536,-1.09675 -9.73984,-1.64512 -14.35346,-1.64512c-0.85437,0 -1.87962,0 -3.24661,0c-1.367,0 -2.73399,0.18279 -4.27186,0.36558c-1.53787,0.18279 -2.90487,0.36558 -4.44274,0.73116c-1.53787,0.36558 -2.90487,0.91396 -4.10099,1.46233c-1.19612,0.54837 -2.05049,1.46233 -2.90487,2.37628c-0.6835,0.91396 -1.02525,2.19349 -1.02525,3.47303c0,1.46233 0.6835,2.74187 1.70874,3.65582s2.39224,1.64512 3.93011,2.19349s3.41749,0.91396 5.29711,1.09675s3.93011,0.36558 5.80973,0.36558c1.87962,0 3.75924,0 5.29711,0c1.70874,0 2.90487,0 4.10099,0.18279c5.29711,0.36558 9.91072,1.46233 14.18258,3.65582c4.27186,2.0107 7.68935,4.75257 10.76509,8.04281s5.12623,7.31164 6.6641,12.06421c1.367,4.56978 2.05049,9.68792 2.05049,15.35445z"/>
   <path id="svg_8" d="m180.68787,511.23832l-50.92059,76.22386l-2.39224,62.14895l-43.91474,0l1.19612,-61.60058l-26.65642,-73.66479l47.33223,-6.39769l7.3476,42.7731l23.58068,-42.7731l44.42736,3.29024z"/>
   <path id="svg_9" d="m289.19315,575.58076c0,6.0321 -0.6835,11.88142 -1.87962,17.36515c-1.367,5.66652 -3.24661,10.78467 -5.63886,15.72003c-2.39224,4.93536 -5.46798,9.32234 -8.88547,13.34375c-3.41749,4.0214 -7.3476,7.49443 -11.79034,10.41909c-4.27186,2.92466 -9.05635,5.11815 -14.18258,6.76327c-5.12623,1.64512 -10.59422,2.37628 -16.23307,2.37628c-5.63886,0 -10.93597,-0.73116 -15.89133,-2.19349c-4.95536,-1.46233 -9.73984,-3.65582 -14.18258,-6.39769c-4.44274,-2.74187 -8.37285,-6.0321 -11.96121,-9.87072s-6.6641,-8.2256 -9.05635,-12.97816c-2.56312,-4.75257 -4.44274,-9.87072 -5.80973,-15.17166c-1.367,-5.48373 -2.05049,-11.15025 -2.05049,-16.99957c0,-5.66652 0.6835,-11.33304 1.87962,-16.81677c1.367,-5.48373 3.24661,-10.78467 5.63886,-15.53724c2.39224,-4.93536 5.46798,-9.32234 8.88547,-13.52654c3.41749,-4.0214 7.3476,-7.67722 11.61946,-10.60188c4.27186,-2.92466 8.88547,-5.30094 14.01171,-6.94606c4.95536,-1.64512 10.25247,-2.55907 15.89133,-2.55907c8.88547,0 17.08745,1.46233 24.43505,4.38698c7.3476,2.92466 13.66996,7.31164 18.96707,12.79537c5.29711,5.48373 9.22722,12.247 12.13209,20.10701c2.73399,7.86001 4.10099,16.63398 4.10099,26.32191zm-41.18075,2.55907c0,-2.92466 -0.34175,-5.66652 -1.19612,-8.2256c-0.85437,-2.74187 -1.87962,-5.11815 -3.41749,-7.12885s-3.24661,-3.83861 -5.46798,-5.11815s-4.78449,-2.0107 -7.51848,-2.0107c-2.90487,0 -5.46798,0.54837 -7.86023,1.64512c-2.22137,1.09675 -4.27186,2.74187 -5.80973,4.56978c-1.70874,2.0107 -2.90487,4.20419 -3.75924,6.76327c-0.85437,2.55907 -1.367,5.30094 -1.367,8.2256c0,2.74187 0.34175,5.48373 1.19612,8.40839c0.6835,2.74187 1.87962,5.30094 3.41749,7.49443c1.53787,2.19349 3.24661,4.0214 5.46798,5.48373c2.22137,1.46233 4.78449,2.0107 7.68935,2.0107s5.46798,-0.54837 7.86023,-1.82791c2.39224,-1.27954 4.27186,-2.92466 5.80973,-4.93536c1.53787,-2.0107 2.90487,-4.38698 3.75924,-7.12885c0.85437,-2.55907 1.19612,-5.30094 1.19612,-8.2256z"/>
   <path id="svg_10" d="m416.6655,535.36673c0,4.93536 -0.17087,10.2363 -0.6835,16.08561c-0.51262,5.84931 -1.19612,11.88142 -2.05049,18.2791c-1.02525,6.2149 -2.22137,12.61258 -3.75924,19.01027c-1.53787,6.39769 -3.58836,12.61258 -5.80973,18.64469c-2.39224,6.0321 -5.12623,11.51583 -8.20197,16.63398c-3.07574,5.11815 -6.6641,9.68792 -10.76509,13.52654c-4.10099,3.83861 -8.54372,6.94606 -13.49908,9.13955c-4.95536,2.19349 -10.59422,3.29024 -16.7457,3.29024c-7.17673,0 -13.32821,-1.27954 -18.62532,-3.65582c-5.29711,-2.55907 -9.73984,-5.84931 -13.49908,-10.05351c-3.75924,-4.20419 -6.83498,-9.13955 -9.22722,-14.62328s-4.27186,-11.51583 -5.63886,-17.73073c-1.367,-6.2149 -2.22137,-12.61258 -2.90487,-19.19306c-0.51262,-6.58048 -0.85437,-12.79537 -0.85437,-18.82748c0,-9.32234 0.51262,-18.46189 1.367,-27.78424c0.85437,-9.13955 2.05049,-18.46189 3.75924,-27.60145l43.40211,1.82791c-1.70874,10.41909 -3.07574,20.83818 -4.27186,31.25727c-1.19612,10.41909 -1.87962,21.02097 -1.87962,31.62285c0,1.09675 0,2.74187 0.17087,4.93536c0.17087,2.19349 0.34175,4.75257 0.51262,7.49443c0.17087,2.74187 0.6835,5.48373 1.02525,8.40839c0.51262,2.92466 1.02525,5.48373 1.87962,7.86001c0.85437,2.37628 1.70874,4.38698 2.90487,5.84931c1.19612,1.46233 2.56312,2.19349 4.10099,2.19349c1.70874,0 3.41749,-0.91396 4.78449,-2.74187c1.367,-1.82791 2.73399,-4.20419 3.75924,-7.31164c1.02525,-3.10745 2.05049,-6.58048 2.90487,-10.41909c0.85437,-4.0214 1.53787,-8.04281 2.05049,-12.42979c0.51262,-4.38698 1.02525,-8.59118 1.367,-12.97816c0.34175,-4.38698 0.6835,-8.2256 0.85437,-12.06421c0.17087,-3.65582 0.34175,-6.94606 0.34175,-9.87072c0,-2.92466 0.17087,-4.93536 0.17087,-6.39769c0,-5.11815 0,-10.2363 -0.17087,-15.35445c-0.17087,-5.11815 -0.34175,-10.2363 -0.6835,-15.35445l43.40211,0c0,9.68792 0.51262,18.82748 0.51262,28.33261z"/>
   <path id="svg_11" d="m496.293,612.13896l-35.02927,0c-0.51262,-7.86001 0,-14.44049 1.19612,-19.55864c1.367,-5.30094 3.07574,-9.68792 5.29711,-13.16095c2.22137,-3.47303 4.78449,-6.39769 7.51848,-8.59118c2.73399,-2.19349 5.46798,-4.0214 8.20197,-5.66652c2.73399,-1.64512 4.95536,-3.10745 7.00585,-4.56978c2.05049,-1.46233 3.41749,-3.29024 4.27186,-5.48373c0.51262,-1.27954 0.6835,-2.92466 0.34175,-4.56978c-0.17087,-1.64512 -0.85437,-3.29024 -2.05049,-4.93536c-1.19612,-1.46233 -3.07574,-2.92466 -5.29711,-3.83861c-2.39224,-1.09675 -5.46798,-1.64512 -9.22722,-1.64512c-2.56312,0 -5.46798,0.18279 -8.88547,0.73116c-3.41749,0.54837 -7.00585,1.27954 -10.76509,2.19349s-7.3476,2.19349 -10.93597,3.65582s-6.83498,3.10745 -9.73984,4.93536l-4.61361,-43.32147c2.56312,-1.64512 5.46798,-3.29024 8.7146,-5.11815c3.24661,-1.64512 6.6641,-3.29024 10.59422,-4.56978c3.93011,-1.27954 8.0311,-2.55907 12.64471,-3.29024s9.3981,-1.27954 14.6952,-1.27954c8.54372,0 16.57482,1.27954 24.0933,3.83861c7.51848,2.55907 14.18258,6.2149 19.82144,11.15025c5.63886,4.93536 10.08159,10.78467 13.49908,17.91352c3.24661,7.12885 4.95536,15.35445 4.95536,24.494c0,6.94606 -0.85437,12.61258 -2.73399,16.81677c-1.87962,4.20419 -4.27186,7.67722 -7.17673,10.41909c-2.90487,2.74187 -6.15148,4.93536 -9.73984,6.94606c-3.58836,1.82791 -7.00585,3.83861 -10.42334,6.0321c-3.41749,2.19349 -6.49323,4.93536 -9.3981,8.04281c-3.07574,2.74187 -5.29711,6.94606 -6.83498,12.42979zm5.12623,29.24656c0,3.29024 -0.51262,6.2149 -1.70874,9.13955c-1.19612,2.74187 -2.73399,5.30094 -4.78449,7.31164s-4.27186,3.83861 -6.83498,4.93536c-2.56312,1.27954 -5.46798,1.82791 -8.37285,1.82791c-3.07574,0 -5.80973,-0.54837 -8.54372,-1.82791c-2.56312,-1.27954 -4.95536,-2.92466 -6.83498,-4.93536s-3.58836,-4.56978 -4.61361,-7.31164c-1.19612,-2.74187 -1.70874,-5.84931 -1.70874,-9.13955c0,-3.10745 0.51262,-6.2149 1.70874,-9.13955s2.73399,-5.30094 4.61361,-7.49443s4.27186,-3.83861 6.83498,-5.11815c2.56312,-1.27954 5.46798,-1.82791 8.54372,-1.82791c2.90487,0 5.80973,0.54837 8.37285,1.82791c2.56312,1.27954 4.95536,2.92466 6.83498,5.11815s3.58836,4.56978 4.78449,7.49443c1.19612,2.92466 1.70874,5.84931 1.70874,9.13955z"/>
  </g>
 </g>
</svg>