<svg width="900" height="450" xmlns="http://www.w3.org/2000/svg" version="1.1" xml:space="preserve">
 <g>
  <title>Layer 1</title>
  <g id="svg_1">
   <path class="st0" d="m-160.8,246.85721l-7.3,27.7l-14.9,1.5l34.2,-121.4l18.8,-1.9l-4.5,118.5l-14.9,1.5l1.4,-27.1l-12.8,1.2zm13.9,-13.1l3.6,-52.6l-1,0.1l-13.5,53.6l10.9,-1.1z" fill="#FFFFFF" id="svg_2"/>
   <path class="st0" d="m-77.3,265.65721l3.5,-76.2l-1,0.1l-21.4,78l-14.8,1.4l4.5,-118.5l14.9,-1.5l-4.9,78.1l1,-0.1l20.8,-79.6l14.9,-1.5l-4.9,78.1l1,-0.1l20.8,-79.6l14.9,-1.5l-34.2,121.4l-15.1,1.5z" fill="#FFFFFF" id="svg_3"/>
   <path class="st0" d="m-0.6,151.85721l-6.7,42l17.8,-1.8l-2,12l-17.8,1.8l-6.9,42l23.8,-2.3l-1.8,12l-37.6,3.7l19.4,-120l37.6,-3.7l-2,12l-23.8,2.3z" fill="#FFFFFF" id="svg_4"/>
   <path class="st0" d="m45.4,154.35721c-0.9,5.5 -1,10.4 -0.3,14.7c0.7,4.3 1.8,8.5 3.3,12.4c1.5,3.9 3.1,7.7 5.1,11.3c1.9,3.6 3.6,7.5 5.2,11.5c1.5,4.1 2.6,8.4 3.3,13.2c0.7,4.7 0.5,10.1 -0.6,16.1c-1.1,5.8 -3.9,10.6 -8.5,14.4c-4.6,3.8 -10.2,6 -16.6,6.6c-6.5,0.6 -11.4,-0.6 -14.9,-3.6c-3.4,-3 -4.6,-7.5 -3.6,-13.3l3.8,-23.2l13.9,-1.4l-3.8,22.9c-0.5,2.5 -0.2,4.3 1,5.4c1.2,1.1 3,1.5 5.5,1.2c5.3,-0.5 8.4,-3.2 9.3,-8.2c0.9,-5.5 1,-10.4 0.3,-14.7c-0.7,-4.3 -1.9,-8.5 -3.4,-12.3c-1.5,-3.9 -3.2,-7.6 -5.2,-11.3c-1.9,-3.6 -3.6,-7.5 -5.1,-11.5c-1.5,-4.1 -2.5,-8.4 -3.2,-13.2c-0.7,-4.7 -0.5,-10.1 0.6,-16.1c1.1,-5.8 3.9,-10.6 8.4,-14.4c4.6,-3.8 10.1,-6 16.5,-6.6c6.5,-0.6 11.5,0.6 15,3.6c3.5,3 4.7,7.5 3.7,13.3l-3.1,18.2l-13.9,1.4l3.2,-18c0.8,-4.9 -1.5,-7.1 -6.7,-6.6c-5.4,0.6 -8.4,3.3 -9.2,8.2z" fill="#FFFFFF" id="svg_5"/>
   <path class="st0" d="m109.7,129.15721l-19.4,120l-13.9,1.4l19.4,-120l13.9,-1.4z" fill="#FFFFFF" id="svg_6"/>
   <path class="st0" d="m141.6,222.15721l-1.8,-55.5l-1,0.1l-15.6,79.1l-13.9,1.4l25.3,-120.5l17.9,-1.8l0.2,64.1l1,-0.1l21.6,-66.2l17.8,-1.8l-13.4,119.4l-13.9,1.4l9.7,-78.5l-1,0.1l-20,57.6l-12.9,1.2z" fill="#FFFFFF" id="svg_7"/>
   <path class="st0" d="m239.8,116.15721c6.5,-0.6 11.5,0.5 15,3.6c3.5,3 4.7,7.4 3.7,13.3l-13.8,82.5c-1.1,5.8 -3.9,10.7 -8.5,14.5c-4.6,3.8 -10.2,6 -16.6,6.7c-6.5,0.6 -11.4,-0.5 -14.9,-3.6s-4.6,-7.4 -3.6,-13.3l13.8,-82.5c1.1,-5.8 3.9,-10.7 8.4,-14.5c4.5,-3.9 10,-6.1 16.5,-6.7zm-18.4,108.4c5.3,-0.5 8.4,-3.2 9.3,-8.1l13.8,-81.7c0.8,-4.9 -1.5,-7.1 -6.7,-6.6c-5.3,0.5 -8.3,3.2 -9.1,8.1l-13.9,81.7c-0.5,2.5 -0.2,4.3 1,5.4c1.2,1 3.1,1.4 5.6,1.2z" fill="#FFFFFF" id="svg_8"/>
  </g>
  <text style="cursor: text;" xml:space="preserve" text-anchor="start" font-family="Noto Sans JP" font-size="200" id="svg_12" y="284" x="9.39999" stroke-width="0" stroke="#000" fill="#000000">Zu al zara?</text>
 </g>

</svg>