<?xml version="1.0" encoding="utf-8"?>
<!-- Generator: Adobe Illustrator 26.0.1, SVG Export Plug-In . SVG Version: 6.00 Build 0)  -->
<svg version="1.1" id="Layer_1" xmlns="http://www.w3.org/2000/svg" xmlns:xlink="http://www.w3.org/1999/xlink" x="0px" y="0px"
	 viewBox="0 0 344.1 316.3" style="enable-background:new 0 0 344.1 316.3;" xml:space="preserve">
<style type="text/css">
	.st0{fill:#FFFFFF;}
</style>
<g>
	<path class="st0" d="M0,316.3L15.4,243h57.3l-15.4,73.4H0z M26.2,202.3L52.8,50.4L63.4,0h63.7l-10.4,49.5l-38,152.8H26.2z"/>
	<path class="st0" d="M108.5,316.3l15.4-73.4h57.3l-15.4,73.4H108.5z M134.7,202.3l26.6-151.9L171.9,0h63.7l-10.4,49.5l-38,152.8
		H134.7z"/>
	<path class="st0" d="M217,316.3l15.4-73.4h57.3l-15.4,73.4H217z M243.2,202.3l26.6-151.9L280.4,0h63.7l-10.4,49.5l-38,152.8H243.2z
		"/>
</g>
</svg>
