<?xml version="1.0" encoding="iso-8859-1"?>
<!-- Generator: Adobe Illustrator 19.0.0, SVG Export Plug-In . SVG Version: 6.00 Build 0)  -->
<svg version="1.1" id="Layer_1" xmlns="http://www.w3.org/2000/svg" xmlns:xlink="http://www.w3.org/1999/xlink" x="0px" y="0px"
	 viewBox="0 0 512 512" style="enable-background:new 0 0 512 512;" xml:space="preserve">
<g>
	<g>
		<path d="M451.003,60.935c-81.198-81.198-213.317-81.198-294.518,0c-69.317,69.319-79.444,175.741-30.413,255.919l-39.297,39.3
			L14.268,428.66c-19.025,19.025-19.025,49.983,0,69.012c9.216,9.216,21.471,14.292,34.505,14.292
			c13.036,0,25.291-5.076,34.507-14.292l72.506-72.506l39.259-39.259c32.393,19.896,69.726,30.543,108.701,30.543
			c55.627,0,107.923-21.662,147.258-60.996C490.34,316.12,512,263.823,512,208.196C511.999,152.566,490.337,100.27,451.003,60.935z
			 M60.592,474.984c-3.157,3.157-7.354,4.896-11.818,4.896c-4.463,0-8.66-1.739-11.817-4.894c-6.516-6.518-6.518-17.122,0-23.637
			l61.163-61.163l23.635,23.635L60.592,474.984z M144.442,391.132l-23.637-23.637l24.334-24.334c0.014,0.018,0.03,0.034,0.045,0.05
			c1.651,1.936,3.35,3.844,5.082,5.732c0.322,0.351,0.646,0.699,0.971,1.048c1.715,1.842,3.454,3.669,5.247,5.462
			c1.826,1.826,3.688,3.6,5.568,5.349c0.265,0.245,0.526,0.492,0.792,0.736c1.949,1.795,3.926,3.55,5.931,5.262L144.442,391.132z
			 M428.314,332.764c-33.273,33.275-77.513,51.6-124.57,51.6c-36.737,0-71.757-11.17-101.183-31.902
			c-0.114-0.087-0.218-0.183-0.335-0.266c-4.067-2.875-8.023-5.934-11.846-9.152c-0.059-0.051-0.12-0.101-0.181-0.152
			c-1.824-1.538-3.614-3.119-5.374-4.729c-0.191-0.175-0.379-0.353-0.568-0.528c-1.726-1.595-3.427-3.215-5.084-4.872
			c-1.617-1.615-3.194-3.276-4.75-4.957c-0.252-0.271-0.507-0.542-0.757-0.817c-1.514-1.657-3-3.343-4.452-5.06
			c-0.197-0.233-0.39-0.467-0.586-0.699c-2.95-3.521-5.761-7.158-8.421-10.886c-48.988-68.757-42.676-165.08,18.964-226.72
			c34.348-34.348,79.453-51.516,124.571-51.516c45.108,0,90.231,17.176,124.57,51.516c33.275,33.275,51.6,77.515,51.6,124.571
			C479.913,255.251,461.589,299.491,428.314,332.764z"/>
	</g>
</g>
<g>
	<g>
		<path d="M401.18,110.759c-33.878-33.875-82-47.629-128.71-36.78c-7.545,1.752-14.985,4.157-22.117,7.15
			c-8.169,3.428-12.012,12.831-8.584,21.001c3.428,8.17,12.826,12.009,21.001,8.584c5.466-2.294,11.17-4.137,16.955-5.48
			c35.859-8.329,72.777,2.223,98.767,28.214c41.216,41.216,41.216,108.28,0,149.496c-41.214,41.217-108.282,41.217-149.496,0
			c-20.449-20.449-31.441-47.641-30.947-76.567c0.152-8.859-6.908-16.163-15.765-16.313c-0.095-0.003-0.186-0.003-0.281-0.003
			c-8.73,0-15.883,7.002-16.034,15.768c-0.642,37.703,13.682,73.146,40.34,99.802c26.863,26.863,62.149,40.295,97.436,40.293
			c35.287,0,70.573-13.431,97.436-40.293C454.906,251.903,454.906,164.484,401.18,110.759z"/>
	</g>
</g>
<g>
	<g>
		<path d="M229,110.762l-0.005-0.005c-6.263-6.263-16.421-6.263-22.685,0.003c-6.264,6.265-6.263,16.424,0.002,22.69
			c3.135,3.131,7.238,4.699,11.345,4.699s8.21-1.567,11.343-4.699C235.265,127.186,235.265,117.028,229,110.762z"/>
	</g>
</g>
<g>
</g>
<g>
</g>
<g>
</g>
<g>
</g>
<g>
</g>
<g>
</g>
<g>
</g>
<g>
</g>
<g>
</g>
<g>
</g>
<g>
</g>
<g>
</g>
<g>
</g>
<g>
</g>
<g>
</g>
</svg>
