<?xml version="1.0" encoding="utf-8"?>
<!-- Generator: Adobe Illustrator 26.0.2, SVG Export Plug-In . SVG Version: 6.00 Build 0)  -->
<svg version="1.1" id="Layer_1" xmlns="http://www.w3.org/2000/svg" xmlns:xlink="http://www.w3.org/1999/xlink" x="0px" y="0px"
	 viewBox="0 0 400 400" style="enable-background:new 0 0 400 400;" xml:space="preserve">
<style type="text/css">
	.st0{fill:#FFFFFF;}
</style>
<g id="Machina_00000013184712536096321820000009694790303086220686_" transform="translate(-1128.956 -11.71)">
	<path id="Path_889_00000018205576342615609170000008459041721454796948_" class="st0" d="M1330.4,285.6c6.8-0.7,13.4-2.2,19.8-4.4
		c6.1-2.1,11.9-5.2,16.9-9.3c4.8-3.9,8.7-8.7,11.6-14.2c1.4-2.7,2.5-5.5,3.3-8.4c0.4-1.4,0.8-2.9,1-4.3c0.1-0.7,0.2-1.4,0.3-2.1
		c0-0.3,0.1-0.7,0.1-1l0-0.5v-0.3l0,0v0l0.1-0.7c0.4-4.3,0.4-8.6,0-12.8c-0.2-2.1-0.5-4.2-0.9-6.2c-0.4-2-0.9-4-1.6-6
		c-2.6-7.8-6.7-15.1-12.1-21.3c-1.4-1.6-2.7-3.1-4.2-4.6c-1.5-1.5-3-2.9-4.6-4.3c-3.2-2.8-6.6-5.5-10.2-7.9
		c-3.6-2.4-7.3-4.7-11.1-6.7c-1.9-1-3.9-2-5.8-2.9c-1-0.4-1.9-0.9-2.9-1.3c-0.5-0.2-1-0.4-1.4-0.6l-0.7-0.3l-0.3-0.1l-0.1,0h0
		l11.9-0.8c0.1,0,0,0,0.1,0l0,0l-0.1,0.1l-0.3,0.2l-0.6,0.4c-0.4,0.3-0.9,0.6-1.3,0.9c-0.9,0.6-1.8,1.3-2.7,2
		c-1.8,1.4-3.6,2.9-5.4,4.5c-3.5,3.2-6.9,6.6-10,10.2c-6.2,7.2-11.5,15.1-15.8,23.6c-4.3,8.5-7.5,17.5-9.8,26.7
		c-0.6,2.3-1.1,4.7-1.5,7.1l-0.3,1.8l-0.3,1.7l-0.1,0.8l-0.1,0.8l-0.2,1.7c-0.1,1.1-0.2,2.3-0.3,3.4c0,0.6-0.1,1.1-0.1,1.7l-0.1,1.7
		c0,2.3,0,4.7,0.1,7.1c0.6,9.9,2.2,19.6,4.8,29.1c2.7,10,6.1,19.7,10.2,29.2c4.1,9.7,8.8,19.1,14.1,28.2c1.3,2.3,2.7,4.6,4,6.8
		c1.4,2.3,2.8,4.5,4.2,6.7c1.4,2.2,2.9,4.4,4.4,6.6c0.8,1.1,1.5,2.2,2.3,3.2l1.2,1.6l1.1,1.5l-7.3-1.3l1.4-0.7l1.4-0.8l2.8-1.6
		c1.9-1.1,3.7-2.2,5.5-3.3s3.7-2.3,5.5-3.4c1.8-1.2,3.6-2.4,5.4-3.6c7.2-4.8,14.1-10,20.9-15.4c6.8-5.4,13.3-11.1,19.5-17
		c6.2-5.9,12.2-12.2,17.8-18.7c5.6-6.5,10.7-13.3,15.4-20.4c4.6-7,8.6-14.4,12-22.1c1.7-3.8,3.1-7.6,4.4-11.5
		c1.3-3.8,2.3-7.8,3.1-11.7c0.8-3.9,1.3-7.8,1.6-11.8c0.1-2,0.2-3.9,0.2-5.9c0-1.9-0.1-3.8-0.2-5.7c-0.3-3.8-0.9-7.6-1.7-11.4
		c-0.8-3.8-1.9-7.5-3.2-11.2c-2.7-7.5-6-14.7-9.9-21.6c-4-7.1-8.5-13.9-13.3-20.4c-4.9-6.6-10.1-13-15.6-19.3
		c-11.2-12.5-23.3-24.2-36.1-35.1c-6.4-5.5-13-10.8-19.7-15.9c-3.3-2.6-6.7-5.1-10.1-7.6c-1.7-1.2-3.4-2.4-5.1-3.6l-2.5-1.8
		l-1.2-0.9l-1.1-0.7l18.9,0.4l-2.4,1.6l-2.5,1.7c-1.7,1.2-3.4,2.4-5.1,3.6c-3.4,2.4-6.8,4.9-10.2,7.4c-3.4,2.5-6.7,5.1-10,7.7
		c-3.3,2.6-6.6,5.2-9.8,7.9c-12.9,10.6-25.2,21.9-36.8,33.9c-11.4,11.7-21.6,24.4-30.6,38.1c-8.6,13.5-15.4,27.8-18.6,42.6
		c-1.6,7.3-2.3,14.9-2,22.4c0,0.9,0.1,1.9,0.2,2.7l0,0.6v0.3l0,0.2c0,0.2,0,0.3,0.1,0.5l0.1,0.6c0.3,1.7,0.6,3.4,1.1,5.1
		c1,3.7,2.2,7.4,3.7,10.9c3.2,7.6,6.8,15.1,10.8,22.3c4.1,7.4,8.5,14.7,13,22c4.6,7.3,9.3,14.5,14.2,21.7c2.4,3.6,4.9,7.2,7.4,10.7
		c2.5,3.6,5,7.1,7.5,10.7c10.1,14.2,20.5,28.2,31,42.2l-2.4,2.3c-3.3-2.9-6.6-5.9-9.8-8.8c-3.2-3-6.4-6-9.6-9.1
		c-3.2-3.1-6.3-6.2-9.4-9.3s-6.2-6.3-9.2-9.4c-12.2-12.7-24-25.8-35.2-39.7c-5.6-6.9-11-14.1-16.2-21.5
		c-5.3-7.5-10.1-15.4-14.4-23.6c-2.3-4.3-4.3-8.8-5.9-13.4c-0.9-2.5-1.7-5-2.3-7.6l-0.2-1c-0.1-0.3-0.2-0.7-0.2-1.1l-0.1-0.6
		l-0.1-0.5l-0.2-1c-0.2-1.3-0.4-2.5-0.6-3.8c-1.3-9.9-1.2-19.9,0.2-29.8c1.4-9.7,3.8-19.2,7.2-28.4c1.7-4.5,3.5-9,5.6-13.3
		c2.1-4.3,4.2-8.6,6.6-12.7c9.3-16.5,20.7-31.4,32.9-45.1c3.1-3.4,6.2-6.8,9.4-10.1c3.2-3.3,6.4-6.5,9.8-9.6
		c3.3-3.2,6.7-6.2,10.1-9.2c3.4-3,6.9-6,10.4-8.9c7-5.8,14.2-11.3,21.5-16.6c3.7-2.7,7.4-5.3,11.2-7.8c1.9-1.3,3.8-2.5,5.7-3.8
		l2.9-1.9l1.5-0.9l1.6-1l9.9-6.1l9.1,6.5l1.6,1.1l1.4,1l2.8,2.1c1.8,1.4,3.7,2.8,5.4,4.2c3.6,2.8,7.1,5.7,10.6,8.6
		c7,5.8,13.7,11.8,20.4,18c13.3,12.4,25.8,25.8,37.3,39.9c5.8,7.2,11.3,14.6,16.3,22.4c5.1,7.9,9.7,16.1,13.6,24.6
		c4,8.7,7.2,17.8,9.5,27.1c1.1,4.7,2,9.6,2.5,14.4c0.5,4.9,0.7,9.8,0.5,14.8c-0.1,2.5-0.3,4.9-0.6,7.4c-0.3,2.5-0.7,4.9-1.1,7.2
		c-0.9,4.7-2.1,9.4-3.6,13.9c-1.5,4.5-3.2,8.9-5.1,13.2c-1.9,4.3-4.1,8.4-6.3,12.4c-9.2,16.1-20.7,30.1-33.1,43
		c-12.4,12.8-25.6,24.7-39.7,35.7c-7,5.5-14,10.8-21.2,16c-1.8,1.3-3.6,2.6-5.4,3.8c-1.8,1.3-3.7,2.5-5.5,3.8
		c-1.8,1.2-3.7,2.5-5.5,3.7l-2.8,1.8l-1.4,0.9l-1.5,0.9l-3.9,2.5l-3.3-3.8l-1.4-1.6l-1.4-1.6l-2.7-3.2c-1.8-2.1-3.5-4.3-5.2-6.4
		c-1.7-2.2-3.4-4.3-5.1-6.5c-1.7-2.2-3.3-4.4-5-6.6c-3.3-4.5-6.4-9-9.6-13.6c-3.1-4.6-6.1-9.3-9-14.1c-5.9-9.7-11-19.8-15.4-30.2
		c-4.6-10.8-7.8-22.2-9.7-33.8c-0.9-6.1-1.3-12.3-1.1-18.4l0.1-2.4l0.1-1.2l0.1-1.2l0.2-2.4l0.3-2.2c0.1-0.7,0.2-1.5,0.3-2.2
		c0.1-0.7,0.2-1.5,0.3-2.2c0.2-1.5,0.5-3,0.8-4.4c2.2-11.9,6.2-23.4,11.6-34.2c2.7-5.4,5.9-10.6,9.3-15.6
		c6.9-9.9,15.1-18.9,24.4-26.6c2.3-1.9,4.7-3.8,7.3-5.6c1.2-0.9,2.5-1.8,3.9-2.6c0.7-0.4,1.3-0.9,2-1.3l1.1-0.6l0.6-0.3l0.8-0.4
		l6-3.3l5.9,2.5l0.7,0.3l0.5,0.2l1,0.5c0.6,0.3,1.3,0.6,1.9,0.9c1.2,0.6,2.4,1.2,3.6,1.9c2.4,1.3,4.7,2.6,7,4
		c4.6,2.8,8.9,5.9,13.1,9.2c4.2,3.4,8.2,7,12,10.9c3.8,4,7.3,8.2,10.4,12.7c3.2,4.6,5.9,9.5,8.1,14.6c2.2,5.2,3.9,10.5,4.9,16.1
		c0.5,2.7,0.9,5.5,1.1,8.3c0.2,2.8,0.2,5.5,0.1,8.3c-0.1,2.7-0.4,5.5-0.8,8.2c-0.4,2.7-1,5.3-1.6,7.9l0.1-0.7l0,0.3l0,0.2l-0.1,0.4
		l-0.2,0.8c-0.1,0.5-0.2,1.1-0.4,1.6c-0.2,1-0.5,2-0.8,3c-0.6,1.9-1.3,3.8-2.1,5.6c-1.6,3.7-3.5,7.1-5.8,10.4
		c-4.5,6.5-10.3,11.9-17.1,15.9c-1.7,1-3.4,1.9-5.1,2.7c-1.7,0.8-3.5,1.5-5.3,2.1c-3.5,1.2-7.1,2.1-10.8,2.8
		c-7.1,1.2-14.4,1.4-21.6,0.7L1330.4,285.6z"/>
</g>
</svg>
