<?xml version="1.0" encoding="utf-8"?>
<!-- Generator: Adobe Illustrator 26.0.2, SVG Export Plug-In . SVG Version: 6.00 Build 0)  -->
<svg version="1.1" id="Layer_1" xmlns="http://www.w3.org/2000/svg" xmlns:xlink="http://www.w3.org/1999/xlink" x="0px" y="0px"
	 viewBox="0 0 400 400" style="enable-background:new 0 0 400 400;" xml:space="preserve">
<style type="text/css">
	.st0{fill:#FFFFFF;}
</style>
<g id="Invictus_00000078028317405694255930000003758784243539881372_" transform="translate(-2169.83 -63.681)">
	<path id="Path_890_00000028292435979150738150000001442517576757396404_" class="st0" d="M2267.4,212.9
		c13.2-100.7,94.3-102.3,94.3-102.3s-108.9-16-142.5,103.9c-29.3,111.9,55.6,159.8,55.6,159.8H2213v-20.8l-31.9,63.9h182l-1.5-43.1
		C2361.7,374.3,2254.2,313.6,2267.4,212.9z"/>
	<path id="Path_891_00000047036281803074567560000011138339504570297000_" class="st0" d="M2526.7,353.5v20.8H2465
		c0,0,84.8-47.9,55.6-159.8C2486.9,94.7,2378,110.6,2378,110.6s81.1,1.6,94.3,102.3c13.2,100.7-94.3,161.4-94.3,161.4l-1.5,43.1h182
		L2526.7,353.5z"/>
</g>
</svg>
